<svg width="47" height="47" viewBox="0 0 47 47" fill="none" xmlns="http://www.w3.org/2000/svg">
<g id="Group">
<g id="Group_2">
<path id="Vector" d="M43.3505 26.678C45.2258 24.8745 46.0658 22.2351 45.6644 19.6286C46.3592 18.8638 46.5427 17.6728 45.9441 16.7648C45.3455 15.8579 44.2376 15.6572 43.3868 16.176C42.8805 15.9495 42.3437 15.8486 41.7853 15.8157C41.2358 15.7838 40.5714 15.9114 40.0563 15.6788C39.6255 15.4842 39.3144 15.0395 39.0386 14.6617C38.7315 14.2428 38.4312 13.8279 38.0642 13.4625C37.6667 13.0672 37.2281 12.7275 36.7601 12.4465C37.5392 12.1778 38.4116 11.9729 39.3841 11.8679C39.3841 11.8679 41.1504 7.55059 45.6193 6.37295C45.6193 6.37295 35.4343 -3.9726 18.1917 3.3681C18.0318 3.43604 17.8718 3.50501 17.7109 3.57604C17.6952 3.58222 17.6805 3.58943 17.6657 3.5956C17.4999 3.66972 17.3331 3.74384 17.1653 3.82104C17.1604 3.8231 17.1555 3.82619 17.1506 3.82825L16.4302 2.26458C16.2801 1.93928 15.9072 1.8034 15.5971 1.9609C15.287 2.1184 15.1575 2.50958 15.3076 2.83487L16.0171 4.37383C-0.811348 12.8109 1.51536 28.0018 1.51536 28.0018C1.51536 28.0018 2.09431 27.554 3.266 27.1577C3.30623 27.9432 4.09815 28.4918 4.71146 29.0014C5.53772 29.688 6.40913 30.3026 7.2874 30.912C7.07053 32.2646 6.91257 33.6296 6.72612 34.9864C6.51906 36.5006 6.23644 38.0489 6.21093 39.5888L0.874536 44.1882C0.53304 44.4806 0.721492 45.0591 1.16112 45.0735L4.32584 45.1785L8.17944 45.3062L12.6179 45.4534L16.5313 45.5831L20.8383 45.7282H20.8403L24.8558 45.861L29.0626 46.001L33.1243 46.1359L36.2154 46.2388L36.9641 46.2635C37.6079 46.2862 38.233 46.0329 38.6952 45.5635L45.4485 38.7241C45.7537 38.4164 45.5506 37.8739 45.1267 37.8636L41.8785 37.8039L39.0141 37.7534C38.9974 36.9052 38.9405 36.06 38.8483 35.2303C38.7374 34.2349 38.5735 33.2456 38.3311 32.2759C38.1496 31.5481 37.9386 30.8934 37.3586 30.5342C37.3625 29.9495 37.3008 29.3504 37.1447 28.7842C39.39 29.0632 41.6607 28.3045 43.3525 26.676L43.3505 26.678ZM19.3879 22.6396C19.3879 22.6396 20.6391 21.218 23.114 19.7738L25.0834 24.0448C25.2287 25.5539 25.6516 27.029 26.4386 28.288C26.4612 28.3786 26.5073 28.4702 26.5809 28.5567C27.3258 29.4204 25.0305 29.9958 24.0119 30.1543C22.6096 30.3715 21.2289 30.5187 19.8109 30.5074C18.6912 30.4981 12.876 32.0268 13.8376 31.1539C14.8827 30.2058 15.1241 28.638 14.3911 27.3996C13.6973 26.2271 12.3755 25.6702 11.0988 25.8493C12.2833 24.7602 14.7885 23.1111 19.3879 22.6407V22.6396ZM25.1963 20.6385C25.1708 20.8032 25.1472 20.9689 25.1266 21.1367L24.2209 19.1716C24.6683 18.9461 25.1463 18.7238 25.6556 18.5128C25.4593 19.2148 25.3082 19.9292 25.1963 20.6385ZM8.18236 27.9946C7.42381 27.5437 6.66626 27.0908 5.9185 26.6204C6.87332 26.536 7.98514 26.5421 9.25692 26.7027C8.8271 27.062 8.45811 27.5067 8.18236 27.9946Z" fill="white"/>
<g id="Group_3">
<path id="Vector_2" d="M43.8497 27.2008C45.8957 25.1904 46.7602 22.3163 46.3461 19.4309L46.1646 20.1525C47.085 19.0757 47.3284 17.4781 46.4698 16.2716C45.6523 15.1238 44.2108 14.8706 43.0303 15.5366L43.5749 15.4615C42.9606 15.2041 42.2943 15.0827 41.6329 15.0693C40.9715 15.0559 40.417 15.2031 39.9401 14.6585C39.5133 14.1716 39.1787 13.6044 38.741 13.1257C38.267 12.6069 37.7047 12.1705 37.1159 11.8071L36.9471 13.1618C37.741 12.8941 38.5536 12.7047 39.3828 12.61C39.6134 12.5832 39.8901 12.4927 39.9931 12.2425C41.0264 9.73694 43.3168 7.76768 45.8064 7.08827C46.3167 6.9493 46.4982 6.23489 46.1184 5.84989C44.7152 4.42828 42.8968 3.34534 41.1422 2.49093C36.8215 0.385796 31.9974 -0.364642 27.2685 0.162415C25.4992 0.360061 23.7485 0.711089 22.0332 1.20932C21.0705 1.48932 20.1206 1.81255 19.1835 2.17491C18.6987 2.36226 18.265 2.56917 17.8352 2.72873C17.5212 2.84505 17.1276 3.0324 16.793 3.1899L17.7596 3.45549C17.3023 2.46314 16.7459 0.603001 15.324 1.28447C14.4987 1.67976 14.4212 2.59696 14.7706 3.37005C14.9786 3.83122 15.1945 4.28931 15.4064 4.74843L15.6596 3.73446C10.495 6.33886 5.83868 10.2846 3.16461 15.689C1.59354 18.8637 0.710371 22.4388 0.698595 26.0211C0.696633 26.7469 0.724073 27.4819 0.832998 28.2004C0.900709 28.6492 1.52581 28.9045 1.87123 28.643C2.34128 28.2869 2.90849 28.0635 3.45311 27.8741L2.55915 27.1597C2.67299 28.2128 3.34614 28.8191 4.10174 29.4367C5.0173 30.1851 5.96231 30.881 6.93087 31.5532L6.60605 30.7163C6.37642 32.1688 6.20958 33.6315 6.00351 35.0882C5.79743 36.5448 5.54037 38.0765 5.50504 39.5908L5.71209 39.0668C4.00755 40.5368 2.30203 42.0058 0.597494 43.4758C0.132353 43.8762 -0.165947 44.4259 0.0999874 45.0714C0.412044 45.8321 1.13033 45.8156 1.78977 45.8372C2.75244 45.8692 3.71608 45.9011 4.67874 45.933C8.71879 46.0668 12.7589 46.1996 16.7989 46.3355C20.891 46.4734 24.984 46.6083 29.0761 46.7442C31.1888 46.8142 33.3016 46.8852 35.4153 46.9552C35.8383 46.9696 36.2612 46.983 36.6832 46.9974C37.6429 47.0293 38.4878 46.7719 39.2041 46.0802C39.8194 45.4872 40.4082 44.8603 41.0097 44.252C42.0725 43.1752 43.1353 42.0995 44.199 41.0227C44.778 40.4359 45.3982 39.8729 45.9458 39.2532C46.6758 38.4276 46.1626 37.1923 45.1126 37.1233C44.5797 37.0883 44.0381 37.1037 43.5033 37.0935C42.517 37.0749 41.5308 37.0574 40.5446 37.0399C40.0343 37.0307 39.5251 37.0214 39.0148 37.0132L39.7213 37.7543C39.6869 36.2463 39.5437 34.7341 39.267 33.2517C39.0364 32.0133 38.79 30.6319 37.7155 29.8948L38.0658 30.5351C38.0619 29.8773 37.9913 29.2236 37.8274 28.5885L37.1464 29.5263C39.6045 29.8052 42.0235 28.9261 43.8546 27.2019C44.5327 26.5626 43.5307 25.5178 42.8556 26.1539C41.2865 27.6332 39.2355 28.2817 37.1473 28.045C36.6802 27.9914 36.3574 28.5597 36.4663 28.9827C36.5615 29.3513 36.6243 29.7136 36.6439 30.0945C36.6694 30.5763 36.6439 30.8449 37.0041 31.1754C37.4613 31.5954 37.5801 32.1574 37.7214 32.7658C38.1021 34.3985 38.2709 36.0764 38.3092 37.7543C38.319 38.1599 38.6252 38.4883 39.0157 38.4955C39.9813 38.513 40.948 38.5295 41.9136 38.547C42.4759 38.5573 43.0391 38.5676 43.6014 38.5779L44.6563 38.5974C44.7113 38.5974 45.0969 38.6509 45.1274 38.6057C44.99 38.8064 44.7691 38.1815 44.9409 38.2093C44.9281 38.2073 44.885 38.2701 44.8742 38.2773C44.7613 38.3483 44.6553 38.4996 44.5611 38.5943L43.4434 39.7257L40.2669 42.9426C39.5878 43.6302 38.9166 44.3271 38.2297 45.0055C37.4476 45.7786 36.1444 45.4965 35.1455 45.4636C33.1151 45.3956 31.0858 45.3287 29.0555 45.2608C24.9143 45.1228 20.7722 44.9859 16.6311 44.847C12.5665 44.71 8.50193 44.5762 4.43734 44.4424C3.43935 44.4095 2.44038 44.3765 1.44239 44.3425C1.39234 44.3405 1.23925 44.3075 1.1951 44.3343C1.23239 44.3106 1.50127 44.6977 1.37468 44.7131C1.42964 44.7059 1.53859 44.5711 1.57981 44.5361L2.80252 43.482C3.88196 42.5514 4.96039 41.6218 6.03983 40.6912C6.2567 40.5049 6.51872 40.3289 6.71007 40.1127C6.94559 39.8471 6.91516 39.5208 6.9289 39.1862C6.94656 38.7827 6.97995 38.3812 7.02214 37.9798C7.10752 37.1758 7.23603 36.378 7.35084 35.5782C7.56379 34.0886 7.7326 32.5939 7.96713 31.1074C8.02209 30.7616 7.92591 30.4672 7.64231 30.2705C6.86904 29.7342 6.09579 29.1927 5.35981 28.5998C4.95846 28.2766 4.03403 27.7372 3.97122 27.1576C3.92314 26.7098 3.55516 26.2764 3.07726 26.4432C2.42371 26.6707 1.72109 26.9342 1.15782 27.3614L2.19605 27.8041C2.16955 27.6311 2.21176 27.9997 2.20587 27.8833C2.20097 27.7783 2.18231 27.6723 2.17348 27.5673C2.13914 27.1864 2.12247 26.8045 2.1156 26.4216C2.09205 25.0648 2.20785 23.7379 2.41392 22.5376C3.15088 18.2553 5.11738 14.3209 7.98673 11.1843C10.3743 8.57474 13.276 6.57357 16.373 5.01195C16.7351 4.82872 16.7812 4.33358 16.6262 3.99799C16.4868 3.69534 16.3475 3.39373 16.2082 3.09108C16.1297 2.92123 16.0639 2.72255 15.9658 2.56505C15.955 2.54858 15.9353 2.47035 15.9206 2.46623C16.0482 2.49917 15.8618 2.66079 15.8647 2.62579C15.8647 2.61858 15.8333 2.6299 15.8323 2.66387C15.8323 2.6927 15.8823 2.76373 15.8902 2.78843C15.9501 2.97167 16.059 3.15387 16.1395 3.32887C16.2729 3.61917 16.4074 3.90946 16.5408 4.20078C16.7194 4.58784 17.1826 4.61975 17.5074 4.46637C17.8322 4.31299 18.1708 4.21622 18.4652 4.04328C18.7125 3.8971 18.2267 4.10711 18.1933 4.10711C18.3445 4.10917 18.42 4.05358 18.5515 4.00828C18.7802 3.93005 19.0019 3.82196 19.2266 3.7324C20.0647 3.39887 20.9136 3.09623 21.7722 2.82858C23.2795 2.35814 24.8182 1.99167 26.3755 1.758C28.9387 1.373 31.5872 1.35756 34.1475 1.78579C37.5713 2.35814 40.8753 3.66137 43.727 5.73975C43.9508 5.90239 44.1696 6.07122 44.3864 6.24313C44.4679 6.30798 44.2677 6.14327 44.4031 6.25651C44.4414 6.28842 44.4806 6.32033 44.5199 6.35327C44.5915 6.41298 44.6632 6.47474 44.7329 6.53651C44.8653 6.65283 44.9978 6.76916 45.1215 6.89577L45.4335 5.65739C43.4581 6.19577 41.6927 7.37959 40.3611 8.99679C39.7478 9.74106 39.1521 10.5821 38.7763 11.4921L39.3867 11.1246C38.4299 11.2347 37.4918 11.421 36.5752 11.7299C36.0051 11.9224 35.8677 12.7521 36.4065 13.0846C37.0217 13.4644 37.5614 13.9246 38.0246 14.4969C38.4574 15.0322 38.8067 15.655 39.3465 16.0822C39.9323 16.5454 40.6153 16.5681 41.3198 16.5537C41.6623 16.5465 42.0038 16.5537 42.3414 16.6206C42.679 16.6875 43.0518 16.9171 43.3914 16.916C43.6868 16.916 43.9291 16.6824 44.2235 16.6432C44.4502 16.6124 44.6838 16.6525 44.8908 16.7524C45.3962 16.9984 45.6621 17.6098 45.5954 18.176C45.562 18.454 45.4482 18.7185 45.2961 18.946C45.0223 19.3547 44.9595 19.5235 45.0155 20.0341C45.091 20.7135 45.0842 21.4197 44.9703 22.0939C44.7034 23.67 43.9684 25.0597 42.8566 26.1519C42.1913 26.8055 43.1922 27.8525 43.8555 27.1998L43.8497 27.2008Z" fill="white"/>
<path id="Vector_3" d="M19.8863 23.1632C20.8883 22.0319 22.1983 21.1631 23.4691 20.4137L22.5025 20.1481C23.108 21.4606 23.7125 22.7731 24.3179 24.0856C24.3592 24.1752 24.3964 24.2699 24.4426 24.3574C24.4455 24.3635 24.4602 24.4088 24.4681 24.4129C24.2816 24.3172 24.4308 24.0979 24.4023 24.3059C24.3876 24.415 24.4347 24.5674 24.4494 24.6765C24.5633 25.5103 24.7615 26.3266 25.0647 27.1079C25.2119 27.4878 25.3748 27.8615 25.5681 28.2187C25.6574 28.3834 25.7516 28.5481 25.8419 28.7107C25.8968 28.8085 25.9381 28.93 26.0234 29.0062C26.1088 29.0823 26.0705 29.1616 26.0176 28.8826C26.0146 28.8693 26.046 28.6984 26.0657 28.7076C26.0706 28.7097 25.9322 28.8065 25.9076 28.8219C25.7035 28.9485 25.4768 29.0278 25.2511 29.1019C22.9372 29.8595 20.4849 29.5662 18.1239 30.0047C17.1946 30.1766 16.2692 30.3722 15.338 30.5317C14.9366 30.6007 14.7207 30.6429 14.3213 30.6707C14.2006 30.679 14.0829 30.6769 13.9622 30.6779C13.8415 30.679 14.1143 30.7335 14.0004 30.68C13.9376 30.6501 14.2575 30.8509 14.2458 30.8334C14.3272 30.9466 14.393 31.6754 14.2929 31.7176C14.5441 31.6126 14.8267 31.1237 14.9651 30.9034C15.1731 30.5698 15.3321 30.1817 15.4185 29.7937C15.6069 28.9495 15.5067 28.0704 15.1397 27.2943C14.4047 25.7399 12.7051 24.9153 11.0948 25.1068L11.5943 26.3719C12.3204 25.71 13.2929 25.1099 14.2615 24.6754C15.8797 23.9497 17.6391 23.5657 19.3839 23.3805C20.2798 23.2857 20.2896 21.8024 19.3839 21.8981C16.2594 22.2296 13.0152 23.1169 10.5953 25.324C10.1576 25.7224 10.4884 26.6612 11.0948 26.5891C12.4313 26.4296 13.9592 27.1718 14.0956 28.7354C14.1643 29.5168 13.8287 30.0912 13.3341 30.6285C13.0162 30.9734 12.8857 31.4809 13.236 31.8679C13.71 32.3919 14.6942 32.1212 15.2761 32.0316C16.2486 31.8823 17.2123 31.6775 18.1789 31.4932C18.5577 31.4212 19.0964 31.3203 19.3819 31.2812C19.7431 31.2328 20.4045 31.2482 20.8637 31.2276C22.4044 31.1597 24.0294 31.0248 25.5161 30.5647C26.4022 30.2898 27.991 29.5343 27.2589 28.2825C26.8438 27.5732 26.4474 26.866 26.1971 26.0621C26.0764 25.676 25.9812 25.2818 25.9057 24.8834C25.8301 24.485 25.8331 24.0424 25.6878 23.6666C25.1236 22.2121 24.3719 20.8121 23.7203 19.3987C23.5525 19.0343 23.0658 18.9489 22.7537 19.1331C21.3848 19.9402 19.9639 20.8975 18.8844 22.1153C18.2662 22.8132 19.2632 23.8643 19.8834 23.1632H19.8863Z" fill="white"/>
<path id="Vector_4" d="M24.5139 20.4402C24.4785 20.6718 24.4491 20.9035 24.4197 21.1351L25.7366 20.7614C25.4343 20.1067 25.1331 19.452 24.8308 18.7963L24.5776 19.8102C24.9937 19.6023 25.4147 19.4067 25.8435 19.2255L24.9741 18.3135C24.7827 19.0135 24.6316 19.7217 24.5148 20.4392C24.3627 21.3718 25.7248 21.7733 25.8779 20.8335C25.9946 20.116 26.1457 19.4077 26.3371 18.7077C26.4735 18.2095 25.9819 17.5795 25.4677 17.7957C24.926 18.0232 24.3912 18.2661 23.8642 18.5296C23.5011 18.7108 23.456 19.2091 23.611 19.5436C23.9133 20.1983 24.2145 20.853 24.5168 21.5088C24.6512 21.8001 25.031 21.9318 25.3146 21.8495C25.6414 21.7548 25.7915 21.4635 25.8337 21.1351C25.8474 21.0342 25.8622 20.9343 25.8779 20.8345C25.9377 20.4361 25.7797 20.0418 25.3842 19.9224C25.0486 19.8216 24.5747 20.046 24.5148 20.4402H24.5139Z" fill="white"/>
<path id="Vector_5" d="M8.53826 27.3544C7.7797 26.9025 7.02313 26.4496 6.27439 25.9802C6.15565 26.4403 6.03693 26.9005 5.91819 27.3616C7.03296 27.269 8.14674 27.3091 9.2566 27.444L8.75709 26.1788C8.28508 26.5885 7.89451 27.0744 7.57166 27.621C7.09081 28.4343 8.31354 29.1796 8.79144 28.3694C9.05345 27.9268 9.37435 27.5593 9.75607 27.2278C10.284 26.7697 9.79338 26.0275 9.2566 25.9627C8.14674 25.8278 7.03296 25.7877 5.91819 25.8803C5.24207 25.9359 4.92801 26.8644 5.56194 27.2618C6.31068 27.7312 7.0673 28.1852 7.82585 28.636C8.5844 29.0869 9.33118 27.8269 8.53926 27.3565L8.53826 27.3544Z" fill="white"/>
</g>
</g>
<g id="Group_4">
<path id="Vector_6" d="M45.4454 38.7259L38.6921 45.5653C38.2299 46.0357 37.6048 46.2879 36.961 46.2653L33.1212 46.1376L29.0595 46.0028L24.8526 45.8628L20.8371 45.73H20.8352L16.5282 45.5848L12.6147 45.4551L8.17629 45.3079L4.32269 45.1803L1.15797 45.0753C0.719323 45.0598 0.53092 44.4823 0.871434 44.19L8.29503 37.7912C8.73171 37.4155 9.28225 37.2137 9.84945 37.223L13.1192 37.2827L16.751 37.3475L21.4946 37.435L25.1294 37.4999L29.8514 37.5874L33.5048 37.6522H33.5068L38.2073 37.7397H38.2093L41.8744 37.8046L45.1226 37.8643C45.5475 37.8746 45.7497 38.4171 45.4445 38.7249L45.4454 38.7259Z" fill="#8ED8C1"/>
<g id="Group_5">
<path id="Vector_7" d="M16.752 37.3461L8.17636 45.3065L4.32275 45.1789L13.1202 37.2812L16.752 37.3461Z" fill="#70B0F8"/>
<path id="Vector_8" d="M25.1304 37.4984L16.5282 45.5844L12.6147 45.4537L21.4956 37.4336L25.1304 37.4984Z" fill="#70B0F8"/>
<path id="Vector_9" d="M33.5051 37.6518L24.8539 45.8624L20.8374 45.7296L29.8517 37.5859L33.5051 37.6518Z" fill="#70B0F8"/>
<path id="Vector_10" d="M41.8755 37.8031L33.1212 46.1362L29.0605 46.0013L38.2083 37.7383H38.2103L41.8755 37.8031Z" fill="#70B0F8"/>
</g>
</g>
<g id="Group_6">
<path id="Vector_11" d="M6.3343 18.6278C6.3343 18.6278 1.46012 25.7904 1.51213 28.0037C1.51213 28.0037 4.34911 25.8018 10.2105 26.8476C10.2105 26.8476 12.3409 23.359 19.3867 22.6394C19.3867 22.6394 23.3571 18.1265 31.1506 17.0137C31.1506 17.0137 33.333 12.5224 39.3818 11.8677C39.3818 11.8677 41.1482 7.55035 45.6171 6.37271C45.6171 6.37271 19.6261 -0.225801 6.3343 18.6268V18.6278Z" fill="#FF862C"/>
<path id="Vector_12" d="M34.1552 41.0785C34.1846 41.0229 34.2199 40.9797 34.2582 40.9447L16.4268 2.26574C16.2767 1.94045 15.9038 1.80457 15.5937 1.96207C15.2836 2.11957 15.1541 2.51074 15.3042 2.83604L33.4879 42.2778C33.7165 41.8815 33.9393 41.4821 34.1552 41.0785Z" fill="#30287D"/>
<path id="Vector_13" d="M1.51207 28.0026C1.51207 28.0026 2.38545 23.7728 9.28602 24.165C9.28602 24.165 11.4478 19.5429 17.8489 19.9351C17.8489 19.9351 21.5485 13.699 29.8621 14.0922C29.8621 14.0922 32.1898 9.64413 38.0511 9.5134C38.0511 9.5134 40.628 5.72003 45.617 6.3737C45.617 6.3737 35.0277 -4.38464 17.163 3.82283C-0.919595 12.1302 1.51207 28.0026 1.51207 28.0026Z" fill="#FFA858"/>
<path id="Vector_14" d="M16.7213 4.0293C16.5967 4.089 16.473 4.14871 16.3494 4.20841C3.83672 10.5115 9.28497 24.1655 9.28497 24.1655C9.28497 24.1655 11.4468 19.5435 17.8479 19.9357C12.1347 7.99252 16.4524 4.2465 16.7203 4.0293H16.7213Z" fill="#FFF1DE"/>
<path id="Vector_15" d="M18.1901 3.36941C17.8506 3.51456 17.5081 3.66485 17.1627 3.82338C17.0224 3.8872 16.884 3.95206 16.7466 4.01794C17.0959 3.96235 24.5451 2.9175 29.8618 14.0938C29.8618 14.0938 32.1894 9.64571 38.0508 9.51498C38.0508 9.51498 29.7853 -1.22072 18.1891 3.37044L18.1901 3.36941Z" fill="#FFF1DE"/>
</g>
<g id="Group_7">
<path id="Vector_16" d="M4.70831 29.0022C5.53457 29.6888 6.40597 30.3033 7.28425 30.9128C7.06738 32.2654 6.90936 33.6304 6.72292 34.9872C6.46974 36.838 6.10371 38.7393 6.23226 40.617C6.34021 42.1868 6.85833 43.7886 8.41175 44.3434C9.93179 44.887 11.4538 43.8771 12.4204 42.7159C13.2614 41.7061 13.8914 40.5511 14.4027 39.3343C15.0346 40.7045 15.7804 42.0077 16.7205 43.1823C17.6223 44.3084 18.8519 45.3976 20.3513 45.1896C21.6624 45.0084 22.5671 43.9379 22.9783 42.683C23.0735 43.0917 23.2423 43.4839 23.5053 43.8462C24.3649 45.0301 25.8369 45.3234 27.143 44.8551C29.1086 44.1509 30.6345 42.3083 31.658 40.336C31.8474 41.7154 32.1349 43.0855 33.0299 44.1376C34.0337 45.3183 35.6706 45.7239 36.9836 44.8437C38.1749 44.0449 38.6498 42.5595 38.8343 41.1605C39.0914 39.2149 39.0629 37.1788 38.8461 35.2311C38.7352 34.2357 38.5713 33.2464 38.3289 32.2767C38.1474 31.5489 37.9364 30.8942 37.3564 30.535C37.3604 29.9503 37.2986 29.3511 37.1425 28.785C39.3878 29.0639 41.6585 28.3053 43.3503 26.6767C45.2256 24.8732 46.0656 22.2338 45.6642 19.6274C46.359 18.8625 46.5425 17.6715 45.9439 16.7635C45.3453 15.8566 44.2374 15.6559 43.3866 16.1747C42.8802 15.9483 42.3435 15.8474 41.7851 15.8144C41.2356 15.7825 40.5712 15.9102 40.056 15.6775C39.6252 15.483 39.3142 15.0383 39.0384 14.6605C38.7313 14.2415 38.431 13.8266 38.0639 13.4612C36.4536 11.8594 34.1701 11.1769 31.9887 11.5444C30.1232 11.8584 28.5649 13.0484 27.4482 14.609C26.2058 16.3456 25.5317 18.5146 25.1971 20.6362C24.7937 23.1953 25.0567 26.0725 26.4384 28.2857C26.461 28.3763 26.5071 28.4679 26.5807 28.5544C27.3255 29.4181 25.0302 29.9935 24.0116 30.152C22.6093 30.3692 21.2286 30.5164 19.8106 30.5051C18.691 30.4958 12.8757 32.0245 13.8374 31.1516C14.8825 30.2035 15.1239 28.6357 14.3909 27.3973C13.6578 26.159 12.2261 25.6062 10.8856 25.8831C9.76791 26.1137 8.76893 26.9609 8.18309 27.9944C7.38136 27.5167 6.57967 27.0391 5.78971 26.5388C5.38542 26.2825 4.95656 25.8872 4.46198 25.879C4.11656 25.8738 3.84575 26.0097 3.61809 26.2351C3.53664 26.2845 3.46401 26.3638 3.41004 26.4801C3.32859 26.5913 3.29524 26.7025 3.2972 26.8054C3.07248 27.7854 4.00864 28.4206 4.71027 29.0032L4.70831 29.0022ZM9.30475 41.0092C9.27531 41.0277 9.25275 41.0462 9.24293 41.0627C9.26256 41.0298 9.28316 41.0143 9.30475 41.0092Z" fill="white"/>
<g id="Group_8">
<path id="Vector_17" d="M4.01153 27.6007C4.63957 28.2008 5.30491 28.7577 5.99576 29.2786C6.63949 29.7604 7.24398 30.169 7.90931 30.6292C7.85141 30.9596 7.8043 31.2901 7.75818 31.6164C7.64631 32.4337 7.34307 34.6542 7.22728 35.5014C6.97803 37.554 6.53151 39.6591 6.95641 41.7705C7.188 42.8421 8.00936 43.8293 9.14375 43.8838C10.2212 43.9353 11.1015 43.3084 11.7953 42.5497C12.9924 41.2156 13.7775 39.5408 14.3692 37.8186C15.0944 39.6128 15.9659 41.3484 17.1787 42.8287C18.056 43.9353 19.3209 45.045 20.8037 44.4654C21.8517 44.0444 22.3954 42.9285 22.5897 41.8868C23.1058 38.8706 21.9793 35.8328 20.3621 33.4086C21.9783 33.4045 23.5916 33.1378 25.1764 32.8928C25.3432 32.8671 25.4855 32.865 25.5591 32.8712C25.5621 32.8825 25.566 32.8959 25.5689 32.9134C25.618 33.4837 25.5493 34.0715 25.459 34.6614C25.2775 35.7021 24.9909 36.7644 24.6122 37.764C24.305 38.5422 23.883 39.4419 23.6534 40.3221C23.4552 41.1178 23.3325 41.8188 23.5641 42.6815C23.7702 43.4309 24.3639 44.1144 25.094 44.3543C27.7052 45.1572 30.2537 41.8621 31.3165 39.7353C31.5647 39.2659 31.7689 38.7491 31.9494 38.2293C32.1457 39.4286 32.2497 40.6762 32.5284 41.825C32.8502 43.5287 34.3978 45.2612 36.1916 44.59C37.7686 43.9816 38.2003 42.0525 38.3308 40.5228C38.5526 37.5622 38.4143 34.578 37.5762 31.7028C37.4035 31.1048 36.799 30.7671 36.2298 30.9504C35.6607 31.1336 35.3398 31.7615 35.5135 32.3586C36.2524 34.8961 36.3692 37.6539 36.1621 40.3077C36.0993 40.9274 35.9433 42.2388 35.4144 42.4406C35.1632 42.3788 34.912 42.0391 34.8128 41.7715C34.6068 41.229 34.5273 40.5753 34.4272 39.9793C34.2202 38.5989 34.0759 37.0362 33.6147 35.6362C33.4488 35.1287 33.2349 34.615 32.9474 34.122C32.6295 33.5784 31.9523 33.4075 31.4332 33.7411C31.2556 33.8553 31.1182 34.018 31.0289 34.1992C30.7326 34.8055 30.5245 35.4087 30.343 35.979C30.0035 37.064 29.7356 38.0399 29.19 38.9911C28.6218 40.0256 27.9064 40.9685 27.0007 41.6799C26.668 41.9352 26.1685 42.2296 25.7799 42.1647C25.7387 42.1493 25.7318 42.1338 25.6945 42.0844C25.618 41.9537 25.6229 41.6624 25.6582 41.4421C25.8731 40.1512 26.5748 39.0219 26.9536 37.7331C27.4373 36.1468 27.8407 34.5059 27.7563 32.8033C27.6729 31.4836 26.7131 30.5159 25.4354 30.5756C25.0665 30.5756 24.4169 30.6971 24.0548 30.7496C22.991 30.9133 21.9302 31.0698 20.8704 31.1109C20.2561 31.1552 19.7125 31.0574 19.0834 31.1459C18.2169 31.252 17.5192 32.0168 17.6566 32.9639C17.7695 33.8348 18.3053 34.2723 18.7184 34.9197C19.4201 36.0047 19.9813 37.2339 20.3042 38.498C20.5299 39.4162 20.6222 40.3468 20.4867 41.2774C20.4455 41.6233 20.3071 42.1019 20.0854 42.3057C19.8577 42.5127 19.2444 41.8518 19.0668 41.6397C17.9216 40.3499 17.1159 38.778 16.4447 37.1628C16.0208 36.1344 15.643 35.0649 15.2613 33.9768C15.0581 33.3901 14.4389 33.0874 13.8805 33.3036C13.5439 33.4333 13.3045 33.7277 13.2152 34.0643C12.7795 35.7361 12.3419 37.3594 11.6657 38.7975C11.2663 39.653 10.181 41.5687 9.27035 41.6685C8.70904 41.4884 8.9063 38.9828 8.97107 38.3549C9.10747 36.9024 9.43814 34.6974 9.60595 33.2078C9.68445 32.7096 9.73649 32.1537 9.80714 31.6009C10.6256 31.8243 11.4626 31.7698 12.4311 31.3549C13.2888 30.9874 14.1357 30.2751 14.2426 29.1983C14.3339 28.0639 13.6411 27.0407 12.6824 26.6361C10.9003 25.8743 9.13983 27.1117 8.42838 28.7948C8.42347 28.8051 8.41956 28.8164 8.41563 28.8277C7.19488 28.0989 5.93393 27.3608 4.74655 26.5733C4.45706 26.386 4.07824 26.4807 3.89964 26.7843C3.74165 27.053 3.79468 27.3958 4.0086 27.6007H4.01153ZM10.2262 29.7459C10.236 29.7212 10.2448 29.6955 10.2556 29.6708C10.5431 28.9708 11.1937 28.2317 11.9631 28.5209C12.1377 28.5889 12.2447 28.6959 12.3154 28.8637C12.3517 28.9471 12.3536 28.9873 12.3536 29.0048C12.3536 29.0223 12.3527 29.047 12.3114 29.1108C12.0151 29.5401 11.1309 29.818 10.5981 29.8098C10.4695 29.8005 10.3469 29.7779 10.2262 29.7459Z" fill="#30287D"/>
<path id="Vector_18" d="M36.1905 28.0078C36.1905 28.0078 38.8793 31.8722 32.8413 38.6375C32.8413 38.6375 29.2733 30.2344 26.9849 28.1334C26.9849 28.1334 31.1427 33.1044 36.1915 28.0078H36.1905Z" fill="#FFA858"/>
<g id="Group_9">
<path id="Vector_19" d="M26.0196 25.9041C26.1736 26.4394 26.3748 26.9593 26.6299 27.4544C26.7408 27.6706 26.8605 27.8816 26.992 28.0865C27.9312 29.541 29.4433 30.6724 31.1292 30.8813C31.1675 30.8865 31.2048 30.8906 31.2431 30.8947C31.7219 30.9575 32.19 30.9503 32.6395 30.8813C34.2733 30.6281 35.6442 29.5472 36.2683 28.0062C41.2406 29.4041 46.1796 24.8006 45.0481 19.4117C45.3729 19.1533 45.6173 18.7827 45.7056 18.3658C45.8135 17.8511 45.6722 17.2798 45.32 16.904C44.9667 16.5293 44.4083 16.3739 43.9324 16.5437C43.7469 16.6096 43.5801 16.7239 43.4427 16.8701C43.2337 16.7414 43.01 16.6384 42.7686 16.5726C42.0169 16.344 41.2151 16.4305 40.5007 16.377C39.1357 16.344 38.6578 14.8761 37.7688 14.0011C36.6128 12.771 34.9858 12.0946 33.3637 12.0463C29.3864 11.9217 27.0185 15.362 26.1177 19.0514C25.8547 20.0767 25.6466 21.137 25.6054 22.2014C25.5593 23.4418 25.6741 24.71 26.0196 25.9031V25.9041ZM28.5729 26.3766C27.5249 24.3991 27.5965 21.7361 28.1294 19.5836C28.619 17.4383 29.6092 15.1345 31.6081 14.2482C33.1861 13.5523 35.1791 13.9012 36.4567 15.0851C37.0975 15.6976 37.5156 16.4686 38.1917 17.1027C38.4753 17.3704 38.8187 17.6246 39.2172 17.7945C39.6175 17.9633 40.0169 18.0281 40.378 18.058C41.0041 18.1095 41.6125 18.0436 42.1709 18.1476C43.1316 18.2896 43.4712 19.4364 43.5418 20.3752C43.6576 21.7855 43.1876 23.2287 42.274 24.2684C40.8825 25.9288 38.4596 26.5166 36.5932 25.4944C36.4361 24.0677 35.7738 22.8417 34.9593 21.733C34.5481 21.1874 34.1144 20.6881 33.6738 20.2105C33.2332 19.7452 32.5315 20.3299 32.8554 20.8837C33.7444 22.3918 34.6512 23.7239 34.7954 25.4152C34.9387 27.1075 33.8769 28.5744 32.2185 28.664C31.9888 28.6815 31.7514 28.6732 31.5158 28.6413C31.3019 28.6135 31.091 28.5672 30.8869 28.5085C30.4021 28.3181 29.9409 28.0505 29.5542 27.6891C29.1539 27.3041 28.829 26.8594 28.5729 26.3746V26.3766Z" fill="#30287D"/>
<path id="Vector_20" d="M35.8162 16.4895C36.2254 16.5101 36.8339 16.716 36.9163 17.1926C36.9496 17.4716 36.7602 17.7269 36.4943 17.7619C35.8515 17.8133 35.4227 18.0336 35.1362 18.6595C35.0626 18.818 34.9821 18.9982 34.8094 19.0672C34.0636 19.3358 33.941 18.2385 34.1353 17.7145C34.3404 16.9929 35.0999 16.4391 35.8162 16.4895Z" fill="#30287D"/>
</g>
<g id="Group_10">
<path id="Vector_21" d="M35.1373 22.0797C36.9279 22.0797 38.3795 20.5569 38.3795 18.6785C38.3795 16.8001 36.9279 15.2773 35.1373 15.2773C33.3466 15.2773 31.895 16.8001 31.895 18.6785C31.895 20.5569 33.3466 22.0797 35.1373 22.0797Z" fill="#30287D"/>
<path id="Vector_22" d="M32.3724 18.679C32.3959 19.8803 33.0868 20.9869 34.18 21.4018C35.2712 21.8166 36.5155 21.4728 37.2623 20.5381C38.8952 18.4978 37.1072 15.3066 34.6108 15.8285C33.3056 16.1013 32.3989 17.2985 32.3724 18.6779C32.3596 19.3213 31.4068 19.3234 31.4186 18.6779C31.45 17.0432 32.394 15.5856 33.866 15.0122C35.3281 14.443 37.0356 14.9453 38.0159 16.2115C38.9874 17.4674 39.1267 19.2688 38.3378 20.6657C37.536 22.0843 35.9562 22.8007 34.4214 22.5053C32.6727 22.1676 31.4539 20.5072 31.4186 18.679C31.4058 18.0346 32.3596 18.0346 32.3724 18.679Z" fill="#FFA858"/>
</g>
<g id="Group_11">
<path id="Vector_23" d="M32.1313 19.9688L27.792 20.9127C27.1993 21.0414 26.6851 21.4264 26.376 21.973" fill="#30287D"/>
<path id="Vector_24" d="M32.2576 20.4504C31.3656 20.6439 30.4736 20.8385 29.5806 21.032C28.6582 21.2327 27.3196 21.2822 26.7868 22.223C26.4738 22.7758 25.6485 22.2735 25.9635 21.7186C26.6445 20.5152 27.8849 20.3814 29.0595 20.1251C30.0408 19.912 31.0221 19.6979 32.0034 19.4848C32.602 19.3541 32.8582 20.3186 32.2566 20.4494L32.2576 20.4504Z" fill="#FFA858"/>
</g>
</g>
</g>
<path id="Vector_25" d="M1.51207 28.0026C1.51207 28.0026 2.38545 23.7728 9.28602 24.165C9.28602 24.165 11.4478 19.5429 17.8489 19.9351C17.8489 19.9351 21.5485 13.699 29.8621 14.0922C29.8621 14.0922 32.1898 9.64413 38.0511 9.5134C38.0511 9.5134 40.628 5.72003 45.617 6.3737C45.617 6.3737 35.0277 -4.38464 17.163 3.82283C-0.919595 12.1302 1.51207 28.0026 1.51207 28.0026Z" fill="#FFA858"/>
<path id="Vector_26" d="M16.7213 4.0293C16.5967 4.089 16.473 4.14871 16.3494 4.20841C3.83672 10.5115 9.28497 24.1655 9.28497 24.1655C9.28497 24.1655 11.4468 19.5435 17.8479 19.9357C12.1347 7.99252 16.4524 4.2465 16.7203 4.0293H16.7213Z" fill="#FFF1DE"/>
<path id="Vector_27" d="M18.1906 3.36746C17.8511 3.51261 17.5086 3.6629 17.1632 3.82143C17.0228 3.88525 16.8845 3.9501 16.7471 4.01599C17.0964 3.9604 24.5456 2.91555 29.8623 14.0918C29.8623 14.0918 32.1899 9.64376 38.0513 9.51302C38.0513 9.51302 29.7857 -1.22267 18.1896 3.36849L18.1906 3.36746Z" fill="#FFF1DE"/>
</g>
</svg>
