<svg width="52" height="40" viewBox="0 0 52 40" fill="none" xmlns="http://www.w3.org/2000/svg">
<g id="Group">
<path id="Vector" d="M1.7455 20.7237C2.74358 21.5339 3.79583 22.2602 4.8573 22.9783C4.59568 24.5739 4.40437 26.186 4.17963 27.7875C3.87422 29.9725 3.43163 32.2164 3.58722 34.4309C3.71746 36.2839 4.34444 38.1748 6.21958 38.8291C8.05669 39.4704 9.89496 38.2787 11.0625 36.9087C12.0778 35.717 12.8396 34.3541 13.4574 32.918C14.2204 34.536 15.1216 36.0725 16.2569 37.4591C17.346 38.7878 18.8327 40.0739 20.6433 39.8283C22.2419 39.6121 23.3391 38.3283 23.83 36.8308C24.0421 37.739 24.5308 38.5527 25.3663 39.122C26.6007 39.9641 28.2142 39.7727 29.4958 39.1633C31.5554 38.1842 33.1804 36.2048 34.3029 34.1026C34.4712 35.3675 34.7063 36.6418 35.3322 37.7165C36.0871 39.0133 37.4309 40.0739 38.966 39.996C41.777 39.8542 42.812 36.8934 43.0448 34.4569C43.2119 32.7125 43.2188 30.9338 43.0909 29.1859C42.9572 27.3683 42.7129 25.4479 42.1216 23.72C42.1055 23.6716 42.0871 23.6232 42.0686 23.5724C41.5396 22.1728 42.3648 20.6458 43.8043 20.3635C45.5066 20.0304 47.1132 19.2179 48.4305 17.9801C50.6964 15.8507 51.7106 12.7375 51.2265 9.66088C52.0655 8.75856 52.288 7.35313 51.5642 6.28192C50.8404 5.21189 49.5035 4.97569 48.4754 5.58747C47.9257 5.34653 47.3471 5.22488 46.7386 5.17528C46.0483 5.11859 45.2473 5.26858 44.5834 5.04655C43.5876 4.71467 43.054 3.46395 42.3775 2.72698C40.6706 0.868019 38.1743 -0.120516 35.6917 0.0117603C33.555 0.12514 31.5876 1.08415 30.1055 2.6573C28.6107 4.24344 27.6276 6.29609 27.0467 8.40307C26.6272 9.92662 26.3586 11.4785 26.3172 13.0339C25.3836 12.3324 22.8665 12.7729 21.7613 12.9796C21.1816 12.3336 20.3702 11.9852 19.4804 12.0926C19.205 12.1257 18.9307 12.1812 18.6564 12.2296C16.8135 12.5497 16.3364 12.5828 14.5016 12.9548C13.0206 13.256 12.1643 14.652 12.3879 16.1472C12.4766 16.7412 12.5792 17.3341 12.6794 17.927C11.7401 17.1144 10.4424 16.7932 9.2092 17.0424C7.85845 17.3152 6.65179 18.3144 5.94414 19.5344C4.97488 18.971 4.00675 18.4065 3.05247 17.8172C2.5638 17.5148 2.04633 17.0483 1.44817 17.0389C1.03096 17.0318 0.702484 17.1924 0.428185 17.4593C0.329068 17.5172 0.241485 17.6105 0.176944 17.7475C0.0789801 17.8786 0.0386217 18.0097 0.0409267 18.1313C-0.229915 19.2887 0.900711 20.0375 1.74781 20.7249L1.7455 20.7237ZM7.63949 35.1053C7.63949 35.1053 7.63834 35.1041 7.63718 35.1005C7.63949 35.1029 7.64064 35.1041 7.63949 35.1053Z" fill="white"/>
<path id="Vector_2" d="M0.90328 19.0664C1.66164 19.775 2.46607 20.4317 3.30049 21.0458C4.07844 21.6139 4.80799 22.0969 5.61245 22.6402C5.54214 23.03 5.48566 23.4209 5.43034 23.8047C5.29434 24.7696 4.92902 27.3904 4.78841 28.3895C4.4876 30.8119 3.94822 33.2968 4.46224 35.7888C4.7423 37.0537 5.73346 38.2194 7.10495 38.282C8.40614 38.3422 9.46992 37.6029 10.3078 36.7076C11.7542 35.1333 12.7027 33.1562 13.4173 31.1248C14.2932 33.2424 15.3454 35.2904 16.8114 37.0371C17.8706 38.3434 19.4 39.6531 21.1899 38.9681C22.4553 38.4721 23.1134 37.1541 23.3474 35.9246C23.9709 32.3649 22.6098 28.7805 20.6562 25.92C22.6086 25.9141 24.5575 25.6011 26.473 25.3106C26.6747 25.281 26.8464 25.2775 26.9363 25.2846C26.9398 25.2987 26.9444 25.3141 26.9478 25.3342C27.0066 26.0074 26.9236 26.7018 26.8141 27.3975C26.5952 28.6257 26.2483 29.88 25.7907 31.0599C25.4208 31.9787 24.909 33.0393 24.6324 34.0786C24.3939 35.0175 24.2452 35.8443 24.5241 36.8623C24.773 37.7469 25.4899 38.5536 26.3727 38.837C29.5272 39.7842 32.6056 35.8962 33.8906 33.3853C34.1903 32.8314 34.4369 32.222 34.6547 31.6079C34.891 33.0228 35.0178 34.4955 35.3543 35.8514C35.7439 37.8627 37.6132 39.9059 39.7788 39.1146C41.6839 38.3965 42.206 36.1206 42.3639 34.3136C42.6325 30.8201 42.4653 27.2983 41.4523 23.9051C41.2437 23.1989 40.5141 22.8008 39.8249 23.017C39.1369 23.2331 38.7496 23.9748 38.9605 24.6787C39.8526 27.6738 39.9943 30.9276 39.7442 34.0597C39.6682 34.792 39.4803 36.3391 38.8407 36.5765C38.5364 36.5033 38.2333 36.1029 38.1146 35.7864C37.8656 35.1463 37.7688 34.3751 37.6478 33.6723C37.3977 32.0425 37.2237 30.1989 36.6659 28.5466C36.4653 27.9478 36.2071 27.3408 35.8591 26.7597C35.4753 26.1184 34.657 25.9164 34.0301 26.3109C33.8157 26.4455 33.6497 26.6381 33.5414 26.8518C33.1841 27.5675 32.9317 28.2785 32.7127 28.9529C32.3024 30.2331 31.9786 31.3847 31.3205 32.5078C30.6336 33.729 29.7704 34.8416 28.6755 35.6813C28.2732 35.9825 27.6693 36.3309 27.2014 36.2529C27.1518 36.2352 27.1438 36.2175 27.0977 36.1584C27.0055 36.0037 27.0112 35.6612 27.0539 35.4002C27.3132 33.8767 28.1603 32.5444 28.619 31.0221C29.2045 29.1489 29.6908 27.2132 29.5894 25.2043C29.4891 23.6465 28.3297 22.5056 26.7853 22.5753C26.3393 22.5753 25.5556 22.7182 25.1176 22.7808C23.8326 22.9733 22.551 23.1587 21.2706 23.2071C20.5283 23.2591 19.8714 23.1445 19.1119 23.2485C18.0643 23.3725 17.2229 24.276 17.3889 25.3944C17.526 26.4219 18.1726 26.938 18.6716 27.7022C19.5187 28.9824 20.1975 30.4327 20.5871 31.9256C20.8591 33.0098 20.9709 34.1081 20.8072 35.2053C20.7577 35.614 20.5894 36.1785 20.322 36.4183C20.0466 36.6627 19.3066 35.8821 19.0923 35.6317C17.7093 34.1105 16.7354 32.2539 15.9252 30.3489C15.4134 29.136 14.9559 27.8734 14.4961 26.5884C14.2506 25.8964 13.5026 25.5397 12.8272 25.7936C12.4204 25.9471 12.1322 26.2944 12.0228 26.6912C11.4961 28.6647 10.9671 30.5804 10.1511 32.2775C9.66932 33.2873 8.35774 35.5478 7.25709 35.6659C6.57941 35.4534 6.818 32.496 6.89637 31.7543C7.06118 30.0395 7.46109 27.4388 7.66278 25.6802C7.75729 25.0921 7.82066 24.4366 7.90594 23.7847C8.8948 24.0492 9.90671 23.9842 11.0765 23.4941C12.1126 23.0607 13.1361 22.2198 13.2651 20.949C13.3758 19.6097 12.5391 18.4026 11.3796 17.9255C9.2279 17.0267 7.10034 18.4865 6.24056 20.473C6.2348 20.486 6.2302 20.499 6.22444 20.5108C4.74922 19.651 3.2256 18.7794 1.79187 17.8511C1.44265 17.6302 0.983937 17.7413 0.768417 18.1003C0.578252 18.4168 0.641657 18.8219 0.900973 19.0628L0.90328 19.0664ZM8.41191 21.5985C8.42344 21.569 8.43497 21.5395 8.44765 21.51C8.79571 20.6844 9.58056 19.8116 10.5106 20.1529C10.7227 20.2333 10.8506 20.3596 10.9371 20.5569C10.9809 20.6549 10.9832 20.7033 10.9843 20.7234C10.9843 20.7435 10.9832 20.773 10.9325 20.8486C10.5752 21.3552 9.5068 21.6836 8.86254 21.6729C8.70695 21.6623 8.55829 21.6352 8.41307 21.5985H8.41191Z" fill="#30287D"/>
<path id="Vector_3" d="M24.5898 17.2409L24.8319 18.9935C26.0881 18.8116 27.2199 18.7798 28.2283 18.8955C30.0171 19.101 31.4105 19.7754 32.3924 20.9115C32.941 21.5469 33.3547 22.2355 33.6648 22.9394C34.868 25.6688 34.5061 28.6533 34.2941 29.8178C34.2284 30.1756 34.2237 30.5418 34.2825 30.9008L34.4393 31.8681C34.4762 32.0937 34.7551 32.1692 34.8957 31.9933L35.14 31.6874C35.4431 31.3083 35.654 30.8618 35.7543 30.3835C36.0482 28.9851 36.4884 25.9156 35.4892 22.9394C35.1861 22.0323 34.7481 21.1359 34.1315 20.2974C33.8734 20.2643 33.6175 20.21 33.3709 20.1403C32.7854 19.9159 32.2276 19.5994 31.762 19.173C31.2779 18.7183 30.8861 18.194 30.576 17.6212C29.6575 17.2905 28.6283 17.1039 27.4919 17.0637C26.5906 17.0306 25.6248 17.0885 24.591 17.2385L24.5898 17.2409Z" fill="#FFA858"/>
<path id="Vector_4" d="M13.0491 15.9442L13.4605 18.4326H13.4674L13.2635 17.2008C13.0837 16.1154 13.797 15.0867 14.8551 14.9037L21.4751 13.7486C21.0764 13.0612 20.2926 12.6609 19.4778 12.8014L14.6419 13.6459C13.5827 13.8301 12.8704 14.8588 13.0502 15.943L13.0491 15.9442Z" fill="#FF6C89"/>
<path id="Vector_5" d="M13.2641 17.2001L13.4681 18.4308L21.5979 17.0182C22.6571 16.834 23.3682 15.8053 23.1896 14.7211L23.1031 14.1979C23.0616 13.9475 22.9763 13.7172 22.8576 13.5117L14.8557 14.903C13.7965 15.086 13.0843 16.1159 13.2641 17.2001Z" fill="#FF862C"/>
<path id="Vector_6" d="M13.2639 17.201L13.4679 18.4316L13.5959 19.2087C13.7756 20.2941 14.7795 21.024 15.8375 20.8398L25.4068 19.178C26.466 18.995 27.1783 17.9651 26.9985 16.8809L26.6665 14.8743C26.4867 13.7889 25.4829 13.0591 24.4249 13.2433L22.8586 13.5149L14.8567 14.9062C13.7975 15.0893 13.0853 16.1191 13.2651 17.2033L13.2639 17.201Z" fill="#FF4370"/>
<path id="Vector_7" d="M26.5823 28.6683L26.9281 26.6617C23.0752 24.0717 18.0064 20.1967 16.7848 18.9153C16.5128 18.6295 16.0886 18.5645 15.7498 18.7629C15.2554 19.0523 15.1724 19.7456 15.5815 20.1495C16.2719 20.8309 17.6607 22.0084 20.5662 24.1119C22.9911 25.8681 26.5593 28.6542 26.5823 28.6695V28.6683Z" fill="#FFA858"/>
<g id="Group_2">
<path id="Vector_8" d="M27.4905 17.0676C27.6772 17.6994 27.9204 18.3136 28.2281 18.897C28.3618 19.1521 28.507 19.4013 28.6661 19.6434C29.8013 21.3595 31.6281 22.6952 33.6634 22.9421C33.7095 22.948 33.7544 22.9527 33.8005 22.9574C34.3791 23.0318 34.945 23.0236 35.4867 22.9421C37.4598 22.6433 39.1171 21.3677 39.8697 19.5489C45.8766 21.1977 51.8432 15.7661 50.4763 9.40614C50.8693 9.10143 51.1643 8.66326 51.2704 8.17077C51.4006 7.56371 51.2301 6.88815 50.8048 6.44644C50.3783 6.00355 49.703 5.82049 49.129 6.02127C48.9054 6.09922 48.7037 6.23386 48.5378 6.40629C48.2854 6.25393 48.0145 6.13229 47.7229 6.05552C46.8148 5.78624 45.8466 5.88781 44.9834 5.82522C43.3353 5.78624 42.7567 4.05483 41.6826 3.02142C40.2857 1.56874 38.3207 0.771533 36.3614 0.714843C31.5566 0.567213 28.696 4.62764 27.6081 8.98096C27.29 10.1915 27.0387 11.4423 26.9892 12.6989C26.9338 14.1634 27.0721 15.6598 27.4894 17.0676H27.4905ZM30.5746 17.625C29.308 15.2913 29.3945 12.1485 30.0387 9.60928C30.63 7.0783 31.8263 4.35954 34.2419 3.31314C36.1482 2.49113 38.557 2.90332 40.099 4.30167C40.8735 5.02447 41.3783 5.93387 42.1943 6.68265C42.5366 6.99917 42.9527 7.29916 43.4333 7.49994C43.9173 7.69953 44.4002 7.7763 44.8359 7.81055C45.5919 7.87078 46.3272 7.79401 47.0015 7.91566C48.1621 8.08337 48.5712 9.43566 48.6576 10.5447C48.7971 12.2088 48.2289 13.9118 47.1271 15.1389C45.4467 17.0983 42.5193 17.7915 40.2638 16.5869C40.0737 14.9039 39.2738 13.4559 38.2907 12.1473C37.794 11.5037 37.2696 10.9143 36.7383 10.351C36.2058 9.80179 35.3576 10.4915 35.7494 11.1458C36.8236 12.9245 37.9185 14.4976 38.0925 16.4936C38.2654 18.4907 36.9826 20.2221 34.9796 20.3284C34.7018 20.3497 34.4148 20.3391 34.1301 20.3013C33.872 20.2682 33.6161 20.2139 33.3695 20.1442C32.784 19.9198 32.2262 19.6033 31.7606 19.1769C31.2765 18.7222 30.8847 18.1978 30.5746 17.625Z" fill="#30287D"/>
<path id="Vector_9" d="M39.3253 5.95697C39.8198 5.98177 40.5551 6.22389 40.6542 6.78607C40.6945 7.11558 40.4663 7.41674 40.1448 7.45808C39.368 7.51949 38.8505 7.77932 38.5036 8.51747C38.4149 8.70408 38.3169 8.91667 38.1094 8.99816C37.2082 9.31468 37.0606 8.02026 37.2957 7.40257C37.5435 6.55104 38.461 5.89674 39.3265 5.95697H39.3253Z" fill="#30287D"/>
</g>
<path id="Vector_10" d="M34.9349 7.2418C34.9625 8.65905 35.7981 9.96528 37.1189 10.4554C38.4397 10.9455 39.9403 10.5393 40.8427 9.43617C42.8146 7.02803 40.6549 3.26286 37.6399 3.87819C36.0632 4.19943 34.9672 5.61196 34.9349 7.2418C34.9199 8.00003 33.7674 8.00357 33.7824 7.2418C33.8204 5.31197 34.9614 3.59237 36.7397 2.91564C38.5066 2.24362 40.5696 2.83651 41.7532 4.33053C42.9276 5.81274 43.0959 7.93861 42.1416 9.58735C41.1735 11.2609 39.2638 12.1065 37.4094 11.7581C35.2968 11.3601 33.8239 9.39956 33.7824 7.2418C33.7674 6.48239 34.9199 6.48239 34.9349 7.2418Z" fill="#FF862C"/>
<g id="Group_3">
<path id="Vector_11" d="M34.874 7.81641L29.6324 8.93013C28.9155 9.08248 28.2955 9.536 27.9209 10.1809" fill="#FF862C"/>
<path id="Vector_12" d="M35.0272 8.38711C33.9496 8.61624 32.872 8.84536 31.7932 9.07448C30.6788 9.31069 29.0618 9.36974 28.4175 10.4811C28.0395 11.1342 27.0426 10.5402 27.4229 9.88468C28.2458 8.46507 29.7441 8.30562 31.1628 8.00446C32.3488 7.7529 33.5336 7.50133 34.7195 7.24859C35.4433 7.09506 35.7521 8.2324 35.0261 8.38711H35.0272Z" fill="#FF862C"/>
</g>
</g>
</svg>
