<svg width="53" height="43" viewBox="0 0 53 43" fill="none" xmlns="http://www.w3.org/2000/svg">
<g id="Group">
<g id="Group_2">
<path id="Vector" d="M46.0702 4.58082C46.0822 4.58082 46.0942 4.58084 46.1051 4.57975C46.2971 4.56448 46.4563 4.42487 46.4966 4.23619C46.5392 4.03879 46.6384 3.74649 46.8751 3.47601C47.1936 3.11174 47.5906 2.98087 47.7989 2.93506C47.9865 2.89361 48.126 2.73439 48.1402 2.54352C48.1555 2.35157 48.0432 2.1727 47.8643 2.1029C47.56 1.98402 47.2873 1.80952 47.0539 1.58376C46.8031 1.34164 46.6035 1.04063 46.477 0.715617C46.4116 0.54766 46.2501 0.4375 46.0702 0.4375C45.8902 0.4375 45.7288 0.54766 45.6634 0.715617C45.5358 1.04172 45.3362 1.34164 45.0864 1.58376C44.853 1.80952 44.5793 1.98511 44.2761 2.1029C44.1081 2.16834 43.998 2.32975 43.998 2.50971C43.998 2.68966 44.1081 2.85109 44.2761 2.91653C44.6022 3.04413 44.9021 3.24371 45.1442 3.49346C45.37 3.72686 45.5456 3.99952 45.6634 4.30381C45.7288 4.47177 45.8913 4.58192 46.0691 4.58192L46.0702 4.58082Z" fill="white"/>
<path id="Vector_2" d="M46.0702 0.872509C45.9786 1.10809 45.7845 1.51489 45.3897 1.89553C45.0319 2.24126 44.6622 2.41903 44.4343 2.50846C44.6699 2.60008 45.0767 2.79422 45.4573 3.18903C45.803 3.54676 45.9808 3.91647 46.0702 4.14442C46.1128 3.9481 46.224 3.55767 46.5468 3.18903C46.9798 2.69388 47.5153 2.54991 47.7062 2.50846C47.4782 2.41903 47.1085 2.24235 46.7508 1.89553C46.356 1.5138 46.1618 1.107 46.0702 0.872509ZM46.0702 0C46.4301 0 46.7519 0.220318 46.8828 0.555143C46.9875 0.82344 47.1511 1.06991 47.3572 1.26841C47.5491 1.45382 47.7727 1.59779 48.0236 1.69485C48.3824 1.83445 48.606 2.19218 48.5765 2.57608C48.546 2.95999 48.269 3.27846 47.8927 3.36026C47.7367 3.39406 47.4401 3.49222 47.2045 3.76269C47.03 3.96228 46.9558 4.18041 46.9242 4.32656C46.8435 4.70283 46.525 4.98203 46.1411 5.01366C46.1171 5.01584 46.0942 5.01692 46.0702 5.01692C45.7136 5.01692 45.3897 4.7988 45.2577 4.46179C45.1606 4.21204 45.0167 3.98737 44.8313 3.79542C44.6328 3.58929 44.3852 3.42569 44.118 3.32099C43.7832 3.19012 43.5629 2.86728 43.5629 2.50846C43.5629 2.14855 43.7832 1.82682 44.118 1.69594C44.3678 1.59888 44.5924 1.45491 44.7844 1.2695C44.9905 1.07101 45.1541 0.823441 45.2588 0.556235C45.3897 0.22141 45.7125 0.0010917 46.0713 0.0010917L46.0702 0Z" fill="#70B0F8"/>
</g>
<g id="Group_3">
<path id="Vector_3" d="M4.64469 19.9529C4.63596 19.8329 4.67194 19.7032 4.77119 19.5712C4.83445 19.4316 4.92389 19.34 5.02641 19.2876C5.2598 19.0717 5.53791 18.9288 5.88691 18.9201C6.45077 18.907 6.92628 19.3105 7.38544 19.5854C8.2754 20.1176 9.17953 20.6247 10.0837 21.1308C10.7086 20.0936 11.676 19.2516 12.8626 18.9343C14.3491 18.5373 16.0047 19.0782 16.8871 20.3554C17.7792 21.6478 17.5873 23.3775 16.417 24.4267C15.3525 25.3821 13.8758 25.8173 12.4613 25.6918C12.1297 28.1501 11.7055 30.6281 11.5997 33.1005C11.5779 33.6022 11.556 34.1257 11.6258 34.6252C11.6313 34.6634 11.6389 34.7016 11.6477 34.7387C11.6509 34.7365 11.6542 34.7354 11.6564 34.7332C12.5932 34.0254 13.2171 32.7363 13.6741 31.6827C14.0252 30.8745 14.2968 30.0326 14.5466 29.1895C14.7647 28.4511 14.8585 27.5383 15.2642 26.8784C16.0614 25.5806 17.9821 25.7889 18.5525 27.1675C19.2167 28.7729 19.7642 30.4088 20.5712 31.9543C20.9573 32.6937 21.3881 33.4135 21.8865 34.0832C22.1297 34.4104 22.3948 34.7201 22.674 35.019C22.7699 35.1226 22.9216 35.2283 23.0415 35.3385C23.0775 35.2382 23.1102 35.1487 23.1124 35.1356C23.1997 34.7114 23.204 34.262 23.1811 33.8302C23.1331 32.9151 22.8768 32.0153 22.542 31.1668C22.2246 30.3652 21.8058 29.5985 21.327 28.8809C20.9497 28.3148 20.4513 27.8317 20.1775 27.2024C19.6137 25.91 20.1088 24.4638 21.4481 23.9283C22.2083 23.624 23.047 23.7396 23.8453 23.72C24.7887 23.6982 25.731 23.5869 26.6646 23.4538C27.9766 23.2652 29.4359 22.8213 30.7 23.4211C32.0414 24.0592 32.4701 25.4399 32.4439 26.8272C32.4112 28.5864 31.9706 30.3903 31.3609 32.035C31.0632 32.8366 30.6705 33.6011 30.3957 34.4115C30.3357 34.5881 30.2801 34.767 30.2343 34.9492C30.2179 35.0124 30.2092 35.0898 30.2004 35.1706C30.316 35.1193 30.4349 35.0691 30.532 35.0026C31.819 34.117 32.8136 32.6076 33.3818 31.1734C33.7014 30.3685 33.9217 29.5298 34.2129 28.7151C34.4746 27.9854 34.7353 27.0879 35.381 26.608C35.9535 26.1826 36.7377 26.1205 37.3692 26.4564C38.0727 26.8305 38.4108 27.6495 38.6998 28.3486C39.3618 29.9519 39.5363 31.674 39.8144 33.3699C39.8831 33.7865 39.9496 34.2075 40.0456 34.6187C40.0827 34.7768 40.1307 35.0888 40.2365 35.3211C40.3674 34.9884 40.4001 34.5194 40.4295 34.2904C40.5429 33.4212 40.555 32.5258 40.5517 31.6511C40.5462 29.9006 40.3597 28.1643 39.9213 26.4716C34.4136 26.8261 30.472 21.6249 29.1982 16.7072C28.6321 14.5194 28.6092 12.1505 29.5832 10.0739C30.652 7.7956 32.9783 6.17491 35.4486 5.80519C36.2011 5.69285 36.9417 5.69284 37.6942 5.79755C38.4599 5.90443 39.1884 6.22399 39.9551 6.30579C40.796 6.39631 41.3337 5.86844 41.9728 5.40601C42.5443 4.99266 43.1496 4.63711 43.8301 4.46697C44.2369 3.44941 45.4083 2.88446 46.4891 3.23892C47.6266 3.61192 48.1785 4.71892 48.0836 5.83464C51.3948 8.92332 51.4831 14.2053 48.509 17.5895C47.7739 18.426 46.8774 19.0739 45.8882 19.5614C46.199 21.7721 45.2032 23.8999 43.4102 25.213C43.9054 26.9875 44.1682 28.8209 44.2424 30.6608C44.3111 32.3905 44.3296 34.2402 43.8988 35.9307C43.552 37.2929 42.7798 38.5679 41.4176 39.0903C39.8929 39.6749 38.3246 38.9474 37.3801 37.7117C36.5938 36.6833 36.3069 35.3974 36.1139 34.1028C35.0004 36.1499 33.3524 38.0476 31.2257 38.8231C29.7915 39.3466 28.1315 39.0794 27.151 37.8481C26.8489 37.4685 26.6515 37.0563 26.5359 36.6244C26.0724 37.9397 25.0712 39.0543 23.6228 39.2419C21.9651 39.4578 20.5985 38.3149 19.594 37.1315C18.5568 35.91 17.7301 34.5533 17.0267 33.1256C16.4835 34.3678 15.815 35.549 14.9315 36.5927C13.8616 37.8568 12.1886 38.9703 10.4599 38.4315C8.68438 37.8786 8.09 36.1172 7.96676 34.4366C7.82389 32.4974 8.2045 30.5343 8.46844 28.6202C8.66911 27.1631 8.84144 25.6973 9.07593 24.2435C8.13362 23.6283 7.19786 23.0078 6.309 22.3152C5.49538 21.6816 4.42328 21.0141 4.64032 19.9464L4.64469 19.9529ZM28.2046 29.6585C28.3507 29.1459 28.4772 28.6245 28.5743 28.1C28.6398 27.7444 28.7423 27.2874 28.7543 26.8686C28.0323 26.9352 27.2906 27.1217 26.5883 27.2122C25.983 27.2896 25.3777 27.3529 24.7702 27.3943C25.8259 29.1143 26.6668 31.1276 26.8795 33.1583C26.9253 33.0274 26.9744 32.8988 27.0234 32.7733C27.4324 31.7351 27.897 30.7349 28.2046 29.6585Z" fill="white" stroke="white" stroke-width="4" stroke-miterlimit="10"/>
<path id="Vector_4" d="M5.33659 19.901C5.53181 19.5793 5.95172 19.4779 6.27237 19.6731C7.59094 20.4965 8.99133 21.2676 10.347 22.0289C10.3524 22.018 10.3557 22.006 10.3612 21.994C11.1388 20.214 13.0812 18.8987 15.0574 19.6905C16.1208 20.1104 16.8941 21.1869 16.7992 22.3844C16.6879 23.5219 15.7544 24.2778 14.8066 24.6715C13.7367 25.1154 12.8107 25.1786 11.9033 24.9474C11.8281 25.5309 11.7735 26.1177 11.6895 26.6433C11.5129 28.216 11.1584 30.5435 11.0166 32.0769C10.9479 32.74 10.7451 35.3848 11.3667 35.5713C12.3745 35.46 13.5655 33.4326 14.0017 32.5273C14.7412 31.0059 15.2156 29.2903 15.6889 27.5235C15.7871 27.1679 16.0499 26.856 16.4207 26.7164C17.038 26.4852 17.7251 26.8004 17.9531 27.4188C18.3817 28.5639 18.806 29.6906 19.2815 30.7736C20.034 32.4728 20.9338 34.1273 22.2087 35.4808C22.4062 35.7033 23.0889 36.398 23.3397 36.1777C23.584 35.9617 23.7345 35.4557 23.7782 35.0903C23.9232 34.1087 23.8152 33.1272 23.56 32.1598C23.1958 30.827 22.5675 29.5346 21.7845 28.3938C21.3231 27.7133 20.7288 27.2552 20.5979 26.3369C20.4397 25.3379 21.2075 24.5264 22.1662 24.4097C22.8609 24.3127 23.4641 24.4119 24.1435 24.3617C25.316 24.3116 26.4884 24.1403 27.6663 23.9615C28.0665 23.9037 28.7842 23.7706 29.1932 23.7695C30.6077 23.6997 31.6744 24.714 31.7747 26.1057C31.8783 27.9009 31.441 29.635 30.9142 31.3124C30.5019 32.6757 29.7319 33.871 29.5018 35.2343C29.4636 35.4677 29.4593 35.7741 29.5454 35.9116C29.5869 35.9639 29.5956 35.9792 29.6403 35.9955C30.07 36.0621 30.6219 35.748 30.9884 35.4764C31.9874 34.7206 32.7726 33.7216 33.3954 32.6255C33.993 31.6188 34.2842 30.5871 34.654 29.4408C34.8525 28.8377 35.0793 28.1997 35.4033 27.5584C35.5003 27.3675 35.6519 27.1941 35.8482 27.0731C36.4197 26.7186 37.1712 26.8942 37.5256 27.4657C37.8474 27.9837 38.0862 28.5247 38.2727 29.0591C38.7907 30.5336 38.9598 32.1805 39.1976 33.6365C39.3121 34.2647 39.4037 34.954 39.6349 35.5244C39.7461 35.8069 40.0254 36.1624 40.3046 36.2268C40.8891 36.0108 41.0527 34.6257 41.1193 33.9713C41.333 31.1706 41.1869 28.2618 40.3547 25.5887C40.1584 24.9594 40.5096 24.2941 41.1389 24.0978C41.7682 23.9015 42.4389 24.2538 42.6341 24.8841C43.5786 27.9117 43.7488 31.0604 43.5208 34.1851C43.3856 35.8003 42.9177 37.8376 41.1771 38.4898C39.1965 39.2086 37.4733 37.3905 37.1068 35.5942C36.7916 34.3836 36.6684 33.0672 36.4448 31.8031C36.2485 32.3528 36.0249 32.8981 35.7533 33.3955C34.5885 35.6465 31.7878 39.1377 28.8932 38.3077C28.084 38.059 27.422 37.3414 27.1897 36.5518C26.929 35.6433 27.061 34.9027 27.2747 34.0618C27.5234 33.1315 27.9858 32.1805 28.3206 31.3571C28.734 30.3002 29.0448 29.1769 29.2401 28.0775C29.3371 27.4548 29.4091 26.8331 29.3524 26.2322C29.3491 26.2147 29.3448 26.2005 29.3415 26.1885C29.2597 26.1831 29.1016 26.1864 28.9172 26.2136C27.1635 26.483 25.3803 26.7731 23.5917 26.7873C25.3967 29.335 26.6607 32.5328 26.1067 35.7185C25.8973 36.819 25.3018 38.0001 24.1446 38.4506C22.5076 39.0722 21.1006 37.9085 20.1234 36.7459C18.7721 35.1907 17.7982 33.366 16.9846 31.477C16.34 33.2973 15.4806 35.0696 14.1631 36.4841C13.3997 37.2901 12.429 37.9565 11.2358 37.9085C9.97943 37.8584 9.06439 36.8222 8.80264 35.6923C8.31948 33.4674 8.80265 31.2426 9.06549 29.0755C9.18874 28.1811 9.51156 25.8363 9.63044 24.9736C9.67952 24.63 9.72968 24.281 9.79185 23.9309C9.0524 23.4489 8.38166 23.0213 7.6662 22.5175C6.89839 21.9722 6.15894 21.3887 5.46094 20.7594C5.22209 20.5445 5.16209 20.1835 5.3355 19.8989L5.33659 19.901ZM12.766 23.0519C13.356 23.0573 14.3332 22.7596 14.6583 22.3037C14.7041 22.2361 14.7041 22.2088 14.7052 22.1914C14.7052 22.1728 14.7019 22.1303 14.6615 22.043C14.5819 21.8664 14.463 21.7551 14.2689 21.6842C13.416 21.3843 12.7006 22.1685 12.3854 22.9079C12.3745 22.9341 12.3647 22.9614 12.3538 22.9875C12.4879 23.0192 12.6242 23.0432 12.766 23.0519Z" fill="#30287D"/>
<g id="Group_4">
<path id="Vector_5" d="M32.0297 21.4266C31.3383 20.4821 30.9107 19.5092 30.4821 18.4153C28.9454 14.4879 28.8091 10.4689 32.4911 7.70635C33.9918 6.57973 35.7772 6.30162 37.6127 6.41504C39.0142 6.64408 40.1964 7.34754 41.5477 6.59609C42.2555 6.20237 42.8979 5.57308 43.6865 5.27424C43.9373 5.17936 44.2023 5.10737 44.4706 5.07683C44.5219 4.86634 44.5633 4.65257 44.7051 4.47807C45.0694 4.02873 45.5722 3.78006 46.1567 3.87276C46.7413 3.96547 47.159 4.32429 47.4186 4.84452C47.6291 5.2666 47.5964 5.71268 47.507 6.16202C51.8717 10.3108 50.5509 16.811 45.1501 19.2671C45.5133 21.7995 44.6015 23.6024 42.514 25.0529C40.7352 25.92 38.8593 26.149 36.9889 25.4663C34.8196 24.6745 33.3527 23.2348 32.0297 21.4276V21.4266ZM38.9836 23.441C39.5748 23.5348 40.1419 23.4181 40.685 23.249C41.1529 23.1029 41.6132 22.8455 41.9633 22.4986C43.2862 21.1899 43.3942 19.5027 42.1792 18.0805C40.9642 16.6583 39.2465 16.2493 37.6182 15.4859C37.0205 15.2056 37.2113 14.3396 37.9159 14.4105C38.6204 14.4803 39.3076 14.6384 40.0241 14.8369C41.4659 15.2361 42.7376 15.885 43.8522 16.9222C46.2516 16.2558 47.7742 14.6025 48.0795 12.118C48.2748 10.5278 47.7305 9.20379 46.7599 7.98991C46.1131 7.18175 45.185 6.59173 44.1522 7.01926C43.549 7.26902 43.079 7.77616 42.49 8.12298C42.1509 8.32257 41.7168 8.55596 41.3001 8.66503C40.8835 8.77409 40.3764 8.78281 39.9619 8.75882C38.9793 8.70211 38.1089 8.2364 37.1263 8.22768C35.1948 8.20914 33.3112 8.97368 32.3558 10.7405C31.1441 12.9807 31.6818 15.2786 32.61 17.5341C33.7748 20.3643 35.8273 22.9393 38.9804 23.441H38.9836Z" fill="#30287D"/>
<path id="Vector_6" d="M37.4673 9.8269C37.8621 9.52807 38.4609 9.36337 38.8677 9.69384C39.1044 9.88579 39.0684 10.2337 38.8611 10.4409C38.3638 10.9394 38.1315 11.3865 38.2286 12.1052C38.2536 12.2874 38.3213 12.512 38.1871 12.6593C37.6145 13.2897 36.9438 12.5949 36.7562 11.9689C36.5043 11.1291 36.7758 10.3504 37.4673 9.828V9.8269Z" fill="#30287D"/>
</g>
</g>
<g id="Group_5">
<path id="Vector_7" d="M33.3567 11.6144C33.8093 11.5326 34.2215 11.3614 34.5651 11.0484C35.4409 10.2489 35.527 8.89872 34.7483 7.9924C34.6262 7.85062 34.5891 7.73392 34.6316 7.54524C34.9108 6.32373 34.0852 5.13167 32.8517 4.95389C31.6062 4.77503 30.4818 5.69552 30.4043 6.95739C30.3989 7.04464 30.3945 7.1308 30.388 7.25622C29.5754 6.80797 28.7542 6.70545 27.9046 7.03919C27.3549 7.25513 26.9219 7.61723 26.6067 8.11892C25.8978 9.24664 26.0658 10.3907 27.1357 11.6711C27.0495 11.8293 26.9415 11.9819 26.8783 12.1521C26.6667 12.7159 26.742 13.2493 27.1073 13.7291C27.1979 13.848 27.2197 13.9266 27.1422 14.0651C26.6896 14.8776 26.8009 15.8493 27.4116 16.543C28.0006 17.2115 28.9603 17.446 29.799 17.1254C30.6486 16.8004 31.1961 15.9922 31.1885 15.0761C31.1885 14.9976 31.1863 14.9179 31.1852 14.8405C32.831 14.7445 33.8944 13.2209 33.3578 11.6144H33.3567Z" fill="white"/>
<path id="Vector_8" d="M33.2132 11.0883C34.1249 10.8985 34.8622 10.1972 34.7259 9.20258C34.6637 8.7456 34.3736 8.49803 34.1805 8.11303C33.9744 7.70186 34.1849 7.29943 34.1293 6.86863C34.0202 6.00811 33.2033 5.37663 32.3417 5.49006C31.4071 5.61439 30.9795 6.3931 30.9337 7.25689C30.9119 7.67896 30.4898 7.92436 30.1136 7.72805C29.0829 7.19145 27.8167 7.31906 27.123 8.3279C26.4218 9.34873 26.8013 10.3957 27.5222 11.2857C27.6771 11.4777 27.7382 11.7209 27.6073 11.9466C27.3815 12.3371 27.207 12.7188 27.3946 13.1605C27.5397 13.503 27.7949 13.6807 27.7142 14.0886C27.6335 14.4965 27.3924 14.7539 27.4132 15.1869C27.4306 15.5719 27.5909 15.9329 27.8516 16.2154C28.3446 16.7476 29.1593 16.8698 29.7962 16.5306C30.4331 16.1914 30.6502 15.5359 30.6403 14.8423C30.636 14.5293 30.8945 14.322 31.1857 14.2969C32.502 14.1835 33.2033 12.9838 32.8314 11.7612C32.6275 11.0883 33.6799 10.8004 33.8828 11.4711C34.4739 13.4179 33.1815 15.2153 31.1846 15.3876L31.7299 14.8423C31.7441 15.8729 31.3711 16.825 30.4724 17.3976C29.5737 17.9702 28.3555 17.9408 27.4797 17.3289C26.6039 16.7171 26.1415 15.5479 26.401 14.4736C26.4338 14.3362 26.5036 14.2108 26.5374 14.0766C26.6083 13.8007 26.7064 14.1693 26.5341 13.8607C26.4032 13.6262 26.2952 13.3852 26.2494 13.1191C26.1393 12.4854 26.352 11.9379 26.6639 11.398L26.749 12.059C25.6823 10.7393 25.1894 9.1306 26.2713 7.64951C27.3532 6.16843 29.1495 6.00048 30.6622 6.78792L29.842 7.25907C29.9085 5.98739 30.5356 4.8335 31.8433 4.48231C33.0975 4.14531 34.451 4.78333 34.9876 5.96339C35.1087 6.22951 35.1839 6.50653 35.2145 6.79773C35.233 6.97442 35.233 7.14347 35.2156 7.32015C35.209 7.38559 35.1959 7.76731 35.1436 7.6168C35.2319 7.87092 35.4948 8.10213 35.606 8.36388C35.7391 8.67799 35.8132 9.00627 35.8263 9.34764C35.8776 10.7546 34.8349 11.8659 33.5033 12.1429C32.8183 12.2858 32.525 11.2344 33.2132 11.0916V11.0883Z" fill="#70B0F8"/>
</g>
<g id="Group_6">
<path id="Vector_9" d="M31.8787 23.8654C32.207 22.8729 32.0936 21.9993 31.2887 21.3264C30.5612 20.7178 29.7443 20.6938 28.8674 21.117C28.8107 21.0014 28.7573 20.8879 28.6995 20.7767C27.8608 19.1473 26.5335 18.2671 24.6925 18.3249C22.882 18.3827 21.6213 19.3272 20.8873 20.9708C20.7847 21.1999 20.68 21.2806 20.4259 21.2948C18.7082 21.3864 17.5554 22.7344 17.6851 24.45C17.6939 24.5677 17.6055 24.7423 17.5063 24.8121C16.4669 25.5526 16.0067 26.6999 16.2957 27.88C16.5792 29.0393 17.563 29.8824 18.8085 30.0122C19.5709 30.0907 20.2438 29.8366 20.8785 29.3633C20.9418 29.4614 21.0007 29.5432 21.052 29.6316C21.8503 31.0178 23.5757 31.3188 24.8114 30.3012C24.9433 30.1922 25.1451 30.1158 25.3153 30.1147C27.647 30.1027 29.9799 30.1147 32.3117 30.1027C34.0305 30.094 35.3971 28.7776 35.456 27.1035C35.5192 25.3257 34.0883 23.8632 32.2921 23.8665C32.1634 23.8665 32.0347 23.8665 31.8776 23.8665L31.8787 23.8654Z" fill="white"/>
<path id="Vector_10" d="M31.3533 23.7198C31.5442 23.0992 31.5987 22.4656 31.1461 21.9431C30.6062 21.3193 29.8602 21.2637 29.1426 21.5876C28.8907 21.701 28.5362 21.6781 28.3966 21.3924C27.7106 19.9811 26.6636 18.9188 25.0124 18.8697C23.4877 18.825 22.2399 19.5481 21.5299 20.8951C21.3718 21.195 21.2606 21.5353 20.9454 21.7108C20.6302 21.8864 20.2528 21.8341 19.9223 21.9203C19.2691 22.0915 18.7238 22.5266 18.4391 23.1439C18.305 23.4351 18.2373 23.7569 18.2253 24.0764C18.2112 24.4538 18.246 24.7875 17.9865 25.0973C17.7269 25.407 17.3605 25.611 17.126 25.9709C16.9089 26.3046 16.778 26.6852 16.7595 27.0833C16.7202 27.9504 17.1794 28.7738 17.9429 29.1872C18.8601 29.6834 19.7915 29.4718 20.604 28.8905C20.8527 28.7127 21.1995 28.8589 21.35 29.0857C21.7873 29.7466 22.2443 30.316 23.1027 30.3552C23.4767 30.3727 23.8421 30.2723 24.1649 30.0869C24.4627 29.9157 24.6939 29.6823 25.0385 29.6016C25.5239 29.4882 26.0921 29.5645 26.5872 29.5634C27.1522 29.5623 27.7182 29.5623 28.2832 29.5623C29.3782 29.5623 30.4743 29.5623 31.5693 29.5601C32.4374 29.558 33.2499 29.5547 33.961 28.9843C34.5522 28.5099 34.9022 27.7846 34.911 27.0277C34.9197 26.2708 34.6001 25.5543 34.0319 25.0569C33.4059 24.5083 32.6763 24.4124 31.8768 24.4124C31.1755 24.4124 31.1734 23.3217 31.8768 23.3217C33.3764 23.3217 34.7833 23.8354 35.5435 25.2194C36.3037 26.6034 36.1052 28.2023 35.1324 29.354C33.9087 30.8024 32.1222 30.6519 30.4023 30.653C29.3422 30.653 28.2821 30.653 27.222 30.653C26.6919 30.653 26.1619 30.6552 25.6318 30.6573C25.1661 30.6595 24.9807 30.8962 24.5848 31.099C23.8606 31.472 23.0034 31.5549 22.2302 31.2866C21.3707 30.9889 20.8887 30.365 20.4066 29.6365L21.1526 29.8317C19.533 30.99 17.2492 30.7097 16.1607 28.957C15.67 28.1663 15.5315 27.1444 15.8009 26.2533C15.9263 25.8367 16.1324 25.4539 16.4018 25.1136C16.5567 24.9184 16.7246 24.7417 16.9166 24.5825C17.1794 24.3633 17.1151 24.1811 17.1456 23.8594C17.2208 23.0436 17.56 22.2551 18.1577 21.6858C18.4533 21.4044 18.7957 21.1862 19.1709 21.0292C19.3661 20.9474 19.5614 20.8798 19.7686 20.8351C19.9354 20.7991 20.3237 20.8002 20.4197 20.7206C20.508 20.6475 20.6204 20.2723 20.6956 20.1436C20.8058 19.9538 20.9301 19.7728 21.0632 19.5972C21.3337 19.2416 21.6401 18.9297 21.9989 18.6625C22.6937 18.1445 23.5193 17.8762 24.3765 17.7976C26.6472 17.5893 28.3748 18.8621 29.3356 20.8405L28.5897 20.6453C29.7119 20.1392 30.8723 20.1698 31.7994 21.0532C32.6305 21.845 32.7253 22.9585 32.4025 24.0088C32.1964 24.6774 31.1439 24.3927 31.3511 23.7187L31.3533 23.7198Z" fill="#70B0F8"/>
</g>
<g id="Group_7">
<path id="Vector_11" d="M2.35524 23.8848H49.6485C50.2207 23.8848 50.6846 24.3486 50.6846 24.9209C50.6846 25.4931 50.2207 25.957 49.6485 25.957H2.35524C1.78302 25.957 1.31914 25.4931 1.31914 24.9209C1.31914 24.3486 1.78302 23.8848 2.35524 23.8848Z" fill="#8ED8C1"/>
<path id="Vector_12" d="M2.36111 26.0117L3.31107 28.0839H48.6946L49.6445 26.0117H2.36111Z" fill="#6EBAA0"/>
<path id="Vector_13" d="M48.6943 28.084H3.31082L5.9894 33.9287C8.44769 39.2925 12.4351 42.4804 16.6875 42.4804H35.3177C39.5701 42.4804 43.5574 39.2925 46.0157 33.9287L48.6943 28.084Z" fill="#8ED8C1"/>
<path id="Vector_14" d="M2.33535 25.957L2.36044 26.0116H49.6439L49.6689 25.957H2.33535Z" fill="#8ED8C1"/>
</g>
<path id="Vector_15" d="M2.17558 24.7714C2.45151 24.8739 2.68382 25.0877 2.8027 25.3745C3.07645 26.0322 3.7592 27.4795 4.4812 29.0118C5.31772 30.7873 6.18257 32.6218 6.53485 33.491C8.86336 38.5407 12.577 41.5541 16.4749 41.5541C16.6625 41.5541 35.1815 41.5541 35.5218 41.5541C35.5239 41.5541 35.5261 41.5541 35.5283 41.5541C35.5436 41.5541 35.5588 41.5541 35.5741 41.5541C35.6766 41.5585 35.7803 41.5607 35.8817 41.5607C38.5985 41.5607 41.0382 40.024 43.3416 36.8622C45.4411 33.9807 47.0443 30.3053 48.4589 27.0617C48.7196 26.463 48.966 25.898 49.2103 25.3494C49.3325 25.0746 49.5594 24.8706 49.8277 24.7714H2.17449M1.06969 23.6808H50.9314C52.4103 23.8171 52.3961 25.8282 50.626 25.8282C50.4951 25.8282 50.3555 25.8173 50.2061 25.7944C47.2919 32.3306 43.4812 42.6513 35.8806 42.6513C35.7639 42.6513 35.6461 42.6491 35.5272 42.6437H16.4727C12.1233 42.6437 8.04538 39.3925 5.53038 33.9229C4.90544 32.3742 2.40352 27.2581 1.79386 25.7933C1.64444 25.8162 1.50377 25.8271 1.37398 25.8271C-0.397213 25.8271 -0.409214 23.816 1.0686 23.6797L1.06969 23.6808Z" fill="white"/>
<g id="Group_8">
<path id="Vector_16" d="M47.7063 23.126C47.7183 23.126 47.7303 23.126 47.7412 23.125C47.9332 23.1097 48.0924 22.9701 48.1328 22.7814C48.2069 22.4346 48.3825 21.922 48.7981 21.4454C49.3586 20.8041 50.0556 20.574 50.4209 20.4943C50.6085 20.4529 50.7481 20.2937 50.7623 20.1028C50.7776 19.9109 50.6652 19.732 50.4864 19.6622C49.9661 19.4593 49.4993 19.1605 49.1002 18.7733C48.6715 18.3589 48.3302 17.8452 48.1131 17.2879C48.0477 17.1199 47.8863 17.0098 47.7063 17.0098C47.5264 17.0098 47.365 17.1199 47.2995 17.2879C47.0814 17.8452 46.74 18.3589 46.3125 18.7733C45.9123 19.1605 45.4454 19.4593 44.9263 19.6622C44.7583 19.7276 44.6482 19.889 44.6482 20.069C44.6482 20.2489 44.7583 20.4104 44.9263 20.4758C45.4836 20.6928 45.9973 21.0342 46.4118 21.4628C46.7989 21.8631 47.0978 22.3299 47.3006 22.849C47.366 23.017 47.5286 23.1271 47.7063 23.1271V23.126Z" fill="white"/>
<path id="Vector_17" d="M47.7064 17.4467C47.5591 17.8241 47.2483 18.4752 46.6157 19.087C46.042 19.6411 45.4499 19.9257 45.0845 20.0686C45.4619 20.2158 46.1129 20.5267 46.7248 21.1592C47.2788 21.7329 47.5635 22.3251 47.7064 22.6905C47.774 22.3753 47.9528 21.7504 48.4698 21.1592C49.1634 20.3653 50.0229 20.1351 50.3283 20.0686C49.9629 19.9257 49.3696 19.6411 48.797 19.087C48.1644 18.4752 47.8536 17.823 47.7064 17.4467ZM47.7064 16.5742C48.0663 16.5742 48.388 16.7945 48.5189 17.1293C48.7141 17.6289 49.0195 18.0891 49.4034 18.4599C49.7611 18.8067 50.1799 19.074 50.6456 19.2561C51.0045 19.3957 51.228 19.7534 51.1986 20.1373C51.168 20.5212 50.891 20.8397 50.5147 20.9215C50.2017 20.9902 49.6052 21.1865 49.1275 21.734C48.773 22.1397 48.6236 22.5782 48.5603 22.8737C48.4796 23.25 48.1612 23.5292 47.7773 23.5608C47.7533 23.563 47.7304 23.5641 47.7064 23.5641C47.3497 23.5641 47.0258 23.346 46.8938 23.009C46.7117 22.5433 46.4445 22.1256 46.0977 21.7667C45.7269 21.3828 45.2666 21.0775 44.7671 20.8822C44.4323 20.7514 44.212 20.4285 44.212 20.0697C44.212 19.7098 44.4323 19.3881 44.7671 19.2572C45.2328 19.075 45.6505 18.8078 46.0094 18.461C46.3933 18.0902 46.6986 17.63 46.8938 17.1304C47.0247 16.7956 47.3475 16.5753 47.7064 16.5753V16.5742Z" fill="#70B0F8"/>
</g>
<g id="Group_9">
<path id="Vector_18" d="M5.28015 25.6297C5.29215 25.6297 5.30416 25.6297 5.31506 25.6286C5.50701 25.6133 5.66626 25.4737 5.70661 25.285C5.74914 25.0876 5.84839 24.7953 6.08506 24.5248C6.40352 24.1606 6.80051 24.0297 7.00882 23.9839C7.19641 23.9424 7.336 23.7832 7.35018 23.5924C7.36545 23.4004 7.25314 23.2215 7.07427 23.1517C6.76998 23.0329 6.49731 22.8583 6.26391 22.6326C6.01306 22.3905 5.81347 22.0895 5.68696 21.7644C5.62152 21.5965 5.46011 21.4863 5.28015 21.4863C5.1002 21.4863 4.93879 21.5965 4.87335 21.7644C4.74574 22.0905 4.54615 22.3905 4.2964 22.6326C4.063 22.8583 3.78926 23.0339 3.48606 23.1517C3.31811 23.2172 3.20795 23.3786 3.20795 23.5585C3.20795 23.7385 3.31811 23.8999 3.48606 23.9654C3.81216 24.093 4.11208 24.2925 4.35421 24.5423C4.57997 24.7757 4.75556 25.0484 4.87335 25.3526C4.93879 25.5206 5.10129 25.6307 5.27906 25.6307L5.28015 25.6297Z" fill="white"/>
<path id="Vector_19" d="M5.28019 21.9213C5.18858 22.1569 4.99444 22.5637 4.59963 22.9444C4.24191 23.2901 3.87218 23.4679 3.64424 23.5573C3.87981 23.6489 4.28663 23.843 4.66727 24.2379C5.013 24.5956 5.19076 24.9653 5.28019 25.1932C5.32272 24.9969 5.43398 24.6065 5.75681 24.2379C6.18979 23.7427 6.72528 23.5987 6.91614 23.5573C6.6882 23.4679 6.31847 23.2912 5.96075 22.9444C5.56593 22.5626 5.3718 22.1558 5.28019 21.9213ZM5.28019 21.0488C5.6401 21.0488 5.96186 21.2691 6.09273 21.604C6.19744 21.8723 6.36101 22.1187 6.56715 22.3172C6.7591 22.5026 6.98269 22.6466 7.23354 22.7437C7.59235 22.8833 7.81592 23.241 7.78647 23.6249C7.75593 24.0088 7.47893 24.3273 7.10266 24.4091C6.9467 24.4429 6.65004 24.541 6.41447 24.8115C6.23996 25.0111 6.16579 25.2292 6.13417 25.3754C6.05346 25.7517 5.735 26.0309 5.3511 26.0625C5.3271 26.0647 5.30418 26.0658 5.28019 26.0658C4.92355 26.0658 4.59964 25.8476 4.46767 25.5106C4.3706 25.2609 4.22665 25.0362 4.04124 24.8442C3.84275 24.6381 3.59517 24.4745 3.32796 24.3698C2.99314 24.2389 2.77282 23.9161 2.77282 23.5573C2.77282 23.1974 2.99314 22.8756 3.32796 22.7448C3.57772 22.6477 3.8024 22.5037 3.99435 22.3183C4.20048 22.1198 4.36406 21.8723 4.46876 21.6051C4.59964 21.2702 4.92246 21.0499 5.28128 21.0499L5.28019 21.0488Z" fill="#70B0F8"/>
</g>
</g>
</svg>
