<svg width="26" height="26" viewBox="0 0 26 26" fill="none" xmlns="http://www.w3.org/2000/svg">
<path id="Union" fill-rule="evenodd" clip-rule="evenodd" d="M19.4995 0H6.49984C2.92524 0 0 2.92524 0 6.49984V19.5001C0 23.0738 2.92524 26 6.49984 26H19.4995C23.0741 26 25.9993 23.0738 25.9993 19.5001V6.49984C25.9993 2.92524 23.0741 0 19.4995 0ZM23.8326 19.5001C23.8326 21.8888 21.8895 23.8333 19.4995 23.8333H6.49984C4.11083 23.8333 2.16672 21.8888 2.16672 19.5001V6.49984C2.16672 4.11051 4.11083 2.16672 6.49984 2.16672H19.4995C21.8895 2.16672 23.8326 4.11051 23.8326 6.49984V19.5001ZM20.0422 7.58301C20.9397 7.58301 21.6672 6.85549 21.6672 5.95805C21.6672 5.06061 20.9397 4.3331 20.0422 4.3331C19.1448 4.3331 18.4173 5.06061 18.4173 5.95805C18.4173 6.85549 19.1448 7.58301 20.0422 7.58301ZM6.49985 12.9997C6.49985 9.40949 9.40916 6.49986 12.9997 6.49986C16.5892 6.49986 19.4995 9.40949 19.4995 12.9997C19.4995 16.5886 16.5892 19.5002 12.9997 19.5002C9.40916 19.5002 6.49985 16.5886 6.49985 12.9997ZM8.66656 12.9997C8.66656 15.3933 10.6067 17.3335 12.9997 17.3335C15.3926 17.3335 17.3328 15.3933 17.3328 12.9997C17.3328 10.6061 15.3926 8.66658 12.9997 8.66658C10.6067 8.66658 8.66656 10.6061 8.66656 12.9997Z" fill="#FFF1DE"/>
</svg>
