<svg width="26" height="26" viewBox="0 0 26 26" fill="none" xmlns="http://www.w3.org/2000/svg">
<g id="_x31_0.Linkedin">
<path id="Vector" d="M25.9998 26.0002V16.4777C25.9998 11.7977 24.9923 8.22266 19.5323 8.22266C16.8998 8.22266 15.1448 9.65266 14.4298 11.0177H14.3648V8.64516H9.19727V26.0002H14.5923V17.3877C14.5923 15.1127 15.0148 12.9352 17.8098 12.9352C20.5723 12.9352 20.6048 15.5027 20.6048 17.5177V25.9677H25.9998V26.0002Z" fill="#FFF1DE"/>
<path id="Vector_2" d="M0.422363 8.64648H5.81739V26.0016H0.422363V8.64648Z" fill="#FFF1DE"/>
<path id="Vector_3" d="M3.12001 0C1.39751 0 0 1.39751 0 3.12001C0 4.84252 1.39751 6.27253 3.12001 6.27253C4.84252 6.27253 6.24003 4.84252 6.24003 3.12001C6.24003 1.39751 4.84252 0 3.12001 0Z" fill="#FFF1DE"/>
</g>
</svg>
