<svg width="52" height="45" viewBox="0 0 52 45" fill="none" xmlns="http://www.w3.org/2000/svg">
<g id="Group">
<g id="Group_2">
<path id="Vector" d="M25.324 20.7332C25.9274 20.7332 26.5248 20.7414 27.1165 20.7577C27.1713 20.7437 27.2273 20.7285 27.2822 20.7145C27.4946 20.662 27.5063 20.2501 27.5658 19.9338C26.295 17.9441 25.8807 15.546 25.9705 13.2307C26.0207 11.989 26.2751 10.752 26.5972 9.55589C27.6976 5.25208 30.5965 1.23885 35.4639 1.38472C37.4478 1.4419 39.4398 2.22961 40.8542 3.66616C41.9418 4.68727 42.5276 6.39922 44.1975 6.43773C45.0716 6.49958 46.053 6.40038 46.9726 6.66529C47.2678 6.74114 47.5421 6.86134 47.7977 7.01188C47.9657 6.84266 48.1711 6.70963 48.3975 6.63144C48.9786 6.43305 49.6637 6.61392 50.0955 7.05153C50.5272 7.48915 50.6988 8.15551 50.5669 8.7565C50.4596 9.24313 50.1608 9.67607 49.7629 9.97715C51.1446 16.2543 45.1206 21.6177 39.0442 20.0085C38.9286 20.3002 38.6357 21.0599 39.0383 21.3353C39.749 21.8196 40.4807 22.3774 41.2089 22.9854C46.1406 24.6204 49.2482 27.0045 49.2482 29.6606C49.2482 30.4845 48.9483 31.2815 48.3882 32.0389C48.6006 32.9351 48.5679 33.8582 48.0567 34.7066C47.0251 36.3812 44.9105 36.3637 43.3433 35.5328C42.3665 35.9494 41.2883 36.3322 40.1225 36.6764C40.1493 39.2228 39.5203 42.0714 37.2914 42.9898C36.4196 43.3305 35.353 43.1637 34.6096 42.6385C33.7589 42.0305 33.3645 41.2988 32.9724 40.4236C32.669 39.7246 32.4531 38.9427 32.2547 38.2075C30.0608 38.4549 27.735 38.5879 25.324 38.5879C12.1115 38.5879 1.40101 34.591 1.40101 29.6606C1.40101 24.7301 12.1115 20.7332 25.324 20.7332Z" fill="#30287D"/>
<path id="Vector_2" d="M25.3237 19.3315C25.6237 19.3315 25.9235 19.3338 26.2246 19.3373C26.374 19.3397 26.5222 19.342 26.6716 19.3455C26.9715 19.321 26.9692 19.356 26.6669 19.4505C26.4989 19.6186 26.332 19.7855 26.1639 19.9535C26.0379 20.1519 26.1978 19.6688 26.2153 19.5614C26.262 19.9208 26.3098 20.2803 26.3565 20.6409C24.6376 17.881 24.2746 14.4921 24.7764 11.3296C25.1755 8.81706 26.0146 6.21819 27.5282 4.14681C28.9846 2.15245 31.0291 0.559515 33.5159 0.140571C36.4637 -0.356561 39.5235 0.469668 41.7104 2.54339C42.2029 3.01018 42.5985 3.54931 43.0128 4.08379C42.8716 3.90174 43.1691 4.27751 43.1575 4.26468C43.2648 4.39421 43.3745 4.52141 43.4924 4.64044C43.5741 4.72329 43.657 4.80849 43.7492 4.88084C43.5099 4.69179 44.1296 5.07224 43.8401 4.94854C43.9253 4.98471 44.0257 5.01038 44.1144 5.03139C43.9872 5.02555 44.0152 5.02786 44.1984 5.0372C44.3256 5.04537 44.4517 5.05239 44.5789 5.05589C44.9756 5.06989 45.3736 5.06172 45.7703 5.0839C46.7378 5.13758 47.6527 5.32778 48.5046 5.80274C47.9386 5.87626 47.3738 5.94863 46.8078 6.02215C48.2175 4.74898 50.3752 4.93452 51.464 6.53794C52.4186 7.94298 52.0475 9.91167 50.7522 10.9678C50.8723 10.5138 50.9925 10.0599 51.1127 9.60476C51.8304 13.0205 50.7778 16.5611 48.1895 18.9406C45.6221 21.3014 42.0535 22.2209 38.6705 21.3597C39.2446 21.0341 39.8187 20.7074 40.3929 20.3818C40.3731 20.432 40.212 20.9209 40.219 20.9221C40.2401 20.8626 40.2389 20.8031 40.2167 20.7459C40.177 20.5498 40.0731 20.3818 39.9074 20.2406C39.9774 20.2219 40.2669 20.495 40.3217 20.5347C40.9636 21.0003 41.5879 21.4904 42.197 21.9969C41.9905 21.8767 41.7851 21.7565 41.5786 21.6363C44.1844 22.5104 46.9828 23.6762 48.9013 25.7242C50.765 27.7151 51.2388 30.4283 49.5957 32.7459C49.6423 32.3865 49.6902 32.0271 49.7369 31.6665C50.1756 33.6865 49.5922 35.9352 47.6503 36.9563C46.0551 37.7966 44.1879 37.5328 42.6347 36.7416H44.0478C42.8832 37.2329 41.7046 37.6647 40.4921 38.0253L41.5202 36.6751C41.5342 39.4444 40.8469 42.8753 38.066 44.1671C36.3773 44.9513 34.4262 44.4974 33.1203 43.2102C31.8787 41.986 31.3465 40.2134 30.9019 38.5785C31.3523 38.9216 31.8016 39.2635 32.2521 39.6066C26.6401 40.2297 20.9289 40.1037 15.3554 39.1911C11.3352 38.5329 6.99987 37.4698 3.59113 35.1335C1.23384 33.5173 -0.855076 30.8391 0.353912 27.8563C1.65742 24.6401 5.33809 22.9597 8.39323 21.8662C13.7648 19.9442 19.6476 19.342 25.3214 19.3327C27.1232 19.3292 27.1267 22.1299 25.3214 22.1334C20.5193 22.1416 15.674 22.613 11.0481 23.9516C10.09 24.2293 9.14243 24.5456 8.21585 24.9155C8.12482 24.9517 8.03382 24.989 7.94279 25.0263C8.12017 24.9528 7.89841 25.045 7.87624 25.0544C7.66035 25.1477 7.44679 25.2446 7.2344 25.3449C6.85163 25.5258 6.47471 25.7184 6.10595 25.9249C5.78152 26.107 5.46178 26.2995 5.15253 26.5061C5.0055 26.6041 4.86313 26.7056 4.71959 26.8072C4.65774 26.8515 4.59708 26.897 4.5364 26.9437C4.79197 26.7488 4.52703 26.9542 4.47218 27.0009C4.23412 27.2051 3.99953 27.4128 3.78248 27.6404C3.66928 27.7583 3.56661 27.8854 3.45575 28.0056C3.4044 28.0617 3.30055 28.218 3.49894 27.945C3.44526 28.0196 3.38926 28.0932 3.33791 28.1702C3.1897 28.3896 3.09164 28.6393 2.9481 28.8587C3.14999 28.5506 2.97147 28.8015 2.92246 28.9544C2.87578 29.0979 2.85361 29.2473 2.81043 29.3909C2.74858 29.5951 2.81743 29.0699 2.8081 29.42C2.8046 29.5554 2.79642 29.6896 2.80342 29.825C2.81393 30.0339 2.8676 30.126 2.79642 29.8553C2.83376 30 2.85478 30.1482 2.89796 30.2929C2.93413 30.4131 2.97963 30.5287 3.0228 30.6465C2.92011 30.3664 2.98077 30.5427 3.06246 30.699C3.13131 30.8297 3.20719 30.9569 3.28771 31.0806C3.34956 31.1752 3.64716 31.5381 3.39626 31.2463C3.58998 31.4727 3.78368 31.6945 3.99958 31.901C4.11277 32.0107 4.23064 32.1169 4.34967 32.2196C4.41852 32.2791 4.48968 32.334 4.55737 32.3935C4.77792 32.586 4.36249 32.2616 4.6274 32.4495C5.25056 32.8918 5.88891 33.2944 6.56693 33.648C6.93219 33.8382 7.30443 34.0167 7.68137 34.1848C8.02562 34.3377 8.29638 34.4473 8.77717 34.6271C10.789 35.3774 12.8814 35.9061 14.9901 36.3005C20.6511 37.359 26.5362 37.4453 32.2521 36.8105C32.8519 36.744 33.4541 37.2924 33.6023 37.8386C33.894 38.9134 34.2161 40.2309 34.9198 41.0454C35.5535 41.7795 36.319 41.9463 37.053 41.5472C37.2631 41.4329 37.6342 41.0688 37.7555 40.8902C37.8967 40.6825 38.0193 40.4631 38.129 40.2379C38.1978 40.0955 38.2445 39.9671 38.3285 39.7034C38.6623 38.6508 38.7253 37.7954 38.7195 36.681C38.716 36.0555 39.1583 35.5058 39.7476 35.3308C40.3124 35.1627 40.8737 34.9842 41.4292 34.787C42.0021 34.5839 42.7304 34.1381 43.3407 34.1381C43.7071 34.1381 43.9977 34.3283 44.321 34.4637C44.1891 34.4089 44.6582 34.5687 44.706 34.5816C45.1308 34.6971 45.244 34.7204 45.7516 34.6773C45.9944 34.6563 45.5801 34.7169 45.8159 34.6656C45.9116 34.6446 46.0049 34.6212 46.0983 34.5932C46.3398 34.5209 46.2161 34.5757 46.4273 34.4345C46.628 34.3015 46.313 34.5442 46.5032 34.3878C46.5825 34.3225 46.6561 34.2501 46.7226 34.1731C46.7775 34.1113 46.8929 33.9584 46.9676 33.7845C47.1298 33.4111 47.1275 33.005 47.0762 32.6082C47.0167 32.1519 46.9361 31.7691 47.1754 31.3362C47.3154 31.0841 47.5161 30.8624 47.6386 30.5987C47.8242 30.1996 47.8032 29.8565 47.8358 29.4445C47.8417 29.3733 47.7892 29.1714 47.8487 29.4889C47.8347 29.4165 47.8253 29.343 47.8067 29.2718C47.7623 29.1084 47.7145 28.9497 47.6608 28.7887C47.5955 28.5938 47.7635 28.9894 47.6667 28.805C47.6398 28.7537 47.6153 28.7 47.5885 28.6475C47.5138 28.5051 47.4309 28.3662 47.3434 28.232C47.2979 28.1632 47.25 28.0943 47.201 28.0278C47.3411 28.2215 47.2139 28.043 47.1835 28.008C47.0388 27.8364 46.8871 27.6707 46.7284 27.512C45.5544 26.3474 43.8728 25.4815 42.2181 24.8385C41.5062 24.5619 40.7302 24.395 40.1303 23.9107C39.6472 23.521 39.1641 23.137 38.6564 22.7787C38.094 22.3808 37.6272 22.0202 37.4801 21.3119C37.3634 20.7482 37.4836 20.1694 37.689 19.6419C37.9679 18.9254 38.6144 18.4609 39.4115 18.664C41.8166 19.2767 44.3921 18.6325 46.2056 16.9661C48.0716 15.2506 48.9223 12.8023 48.4077 10.3551C48.312 9.89767 48.375 9.31302 48.7683 8.9921C48.9585 8.83689 49.1394 8.63267 49.1697 8.54981C49.2316 8.3771 49.2292 8.28842 49.1697 8.15422C49.0845 7.95817 48.8978 7.90565 48.7846 8.00718C48.312 8.43429 47.6527 8.54047 47.0879 8.22656C45.8917 7.55905 44.3781 8.10287 43.0921 7.65475C42.4643 7.43652 41.917 7.05492 41.4583 6.5753C41.2915 6.40025 41.1397 6.2112 40.9892 6.02098C40.8538 5.84944 40.722 5.67556 40.5901 5.50285C40.5959 5.51102 40.3299 5.16908 40.4466 5.31496C38.8957 3.37777 36.2921 2.43369 34.0212 2.88881C31.8891 3.31592 30.3511 4.72914 29.2681 6.60564C28.6543 7.66875 28.3088 8.57666 27.9844 9.78098C27.5888 11.2525 27.3204 12.7042 27.3613 14.233C27.4021 15.7792 27.7172 17.3465 28.464 18.713C28.5597 18.8892 28.6823 19.0549 28.7721 19.2335C28.9904 19.6629 28.9623 20.0165 28.8865 20.4763C28.8141 20.9104 28.6823 21.3352 28.3602 21.6561C27.5982 22.4182 26.2888 22.1404 25.3202 22.1381C23.5184 22.1346 23.5149 19.3338 25.3202 19.3373L25.3237 19.3315Z" fill="white"/>
</g>
<g id="Group_3">
<path id="Vector_3" d="M25.3231 38.5872C12.1108 38.5872 1.40005 34.5902 1.40005 29.6598C1.40005 24.7293 12.1108 20.7324 25.3231 20.7324C38.5354 20.7324 49.2461 24.7293 49.2461 29.6598C49.2461 34.5902 38.5354 38.5872 25.3231 38.5872Z" fill="#FF862C"/>
<g id="Clip path group">
<mask id="mask0_947_1575" style="mask-type:luminance" maskUnits="userSpaceOnUse" x="1" y="20" width="49" height="19">
<g id="clippath-3">
<path id="Vector_4" d="M25.324 20.7305C38.5366 20.7305 49.2471 24.7274 49.2471 29.6578C49.2471 34.5883 38.5366 38.5852 25.324 38.5852C12.1115 38.5852 1.40103 34.5883 1.40103 29.6578C1.40103 24.7274 12.1115 20.7305 25.324 20.7305ZM25.324 30.6498C34.2829 30.6498 41.545 29.1607 41.545 27.3239C41.545 25.4871 34.2829 23.998 25.324 23.998C16.3652 23.998 9.10307 25.4871 9.10307 27.3239C9.10307 29.1607 16.3652 30.6498 25.324 30.6498Z" fill="white"/>
</g>
</mask>
<g mask="url(#mask0_947_1575)">
<g id="Group_4">
<g id="Group_5">
<path id="Vector_5" d="M27.9582 30.513C28.8509 33.4573 29.194 36.5708 28.942 39.6376C28.8801 40.3915 28.3421 41.038 27.5416 41.038C26.8321 41.038 26.0794 40.3962 26.1412 39.6376C26.3746 36.7972 26.0852 33.9848 25.2578 31.2576C24.7338 29.5293 27.4365 28.7906 27.9582 30.513Z" fill="#FDCB2E"/>
<path id="Vector_6" d="M22.6608 30.8867C22.3353 33.803 22.0097 36.7181 21.6853 39.6344C21.6012 40.3859 21.1018 41.0348 20.2849 41.0348C19.5929 41.0348 18.8005 40.3906 18.8845 39.6344C19.2101 36.7181 19.5357 33.803 19.8601 30.8867C19.9441 30.1352 20.4436 29.4863 21.2605 29.4863C21.9525 29.4863 22.7449 30.1305 22.6608 30.8867Z" fill="#FDCB2E"/>
<path id="Vector_7" d="M15.3748 30.4973C14.9337 30.9804 14.8205 31.1216 14.4821 31.6234C14.0923 32.2034 13.7398 32.8219 13.4714 33.4672C12.8985 34.8408 12.6604 36.2726 12.6896 37.7465C12.7258 39.5495 9.92504 39.5495 9.88886 37.7465C9.82001 34.3319 11.099 31.0341 13.3945 28.5169C13.9044 27.9579 14.8578 27.9999 15.3748 28.5169C15.9314 29.0736 15.8859 29.9371 15.3748 30.4973Z" fill="#FDCB2E"/>
<path id="Vector_8" d="M12.7209 28.7846C12.4525 28.8033 12.1841 28.8231 11.9157 28.8487C11.6987 28.8697 11.4816 28.8966 11.2646 28.9199C10.9927 28.9491 11.3836 28.9013 11.2039 28.9269C11.0942 28.9433 10.9856 28.9584 10.8759 28.976C9.75448 29.151 8.63651 29.4066 7.57456 29.815C6.56396 30.2036 5.70858 30.8466 4.89986 31.7615C4.5416 32.1665 4.23701 32.6041 3.9546 33.086C3.83207 33.2961 3.71534 33.5108 3.60798 33.729C3.5578 33.8317 3.51112 33.9356 3.46211 34.0383C3.42243 34.1211 3.29878 34.4257 3.45049 34.0593C3.16224 34.7583 2.52154 35.2554 1.728 35.0372C1.06749 34.8552 0.45951 34.0184 0.750087 33.3148C1.82137 30.7217 3.67334 28.4485 6.29904 27.3328C8.32608 26.4716 10.534 26.132 12.7197 25.985C13.4748 25.9336 14.1201 26.6653 14.1201 27.3853C14.1201 28.1859 13.4771 28.7344 12.7197 28.7857L12.7209 28.7846Z" fill="#FDCB2E"/>
<path id="Vector_9" d="M25.2082 23.2992C25.5198 20.3817 25.8302 17.4643 26.1418 14.5469C26.2223 13.7953 26.7276 13.1465 27.5422 13.1465C28.2365 13.1465 29.0231 13.7895 28.9425 14.5469C28.631 17.4643 28.3205 20.3817 28.009 23.2992C27.9284 24.0507 27.4231 24.6996 26.6086 24.6996C25.9142 24.6996 25.1277 24.0565 25.2082 23.2992Z" fill="#FDCB2E"/>
<path id="Vector_10" d="M19.8601 23.2965C19.5345 20.3802 19.2089 17.4651 18.8845 14.5488C18.8005 13.7961 19.5882 13.1484 20.2849 13.1484C21.1122 13.1484 21.6012 13.7938 21.6852 14.5488C22.0108 17.4651 22.3364 20.3802 22.6608 23.2965C22.7448 24.0492 21.9571 24.6969 21.2604 24.6969C20.433 24.6969 19.9441 24.0515 19.8601 23.2965Z" fill="#FDCB2E"/>
<path id="Vector_11" d="M13.0345 25.0505C12.6249 22.2136 11.6388 19.5505 10.0809 17.1454C9.66894 16.5106 9.95135 15.5992 10.5839 15.2292C11.263 14.8313 12.0869 15.095 12.5 15.7322C14.1746 18.3171 15.2961 21.2578 15.736 24.306C15.8446 25.054 15.5517 25.8102 14.7581 26.0284C14.1 26.2093 13.1442 25.8032 13.0356 25.0505H13.0345Z" fill="#FDCB2E"/>
<path id="Vector_12" d="M11.5994 27.5419C8.75551 25.6047 5.40857 24.4611 2.09786 24.2522C1.34282 24.2044 0.697485 23.643 0.697485 22.8518C0.697485 22.1306 1.33932 21.4036 2.09786 21.4515C5.99556 21.6965 9.7766 22.9183 13.0126 25.1228C13.637 25.5475 13.9159 26.3539 13.5156 27.0389C13.1538 27.6574 12.2273 27.969 11.5994 27.5419Z" fill="#FDCB2E"/>
</g>
<g id="Group_6">
<path id="Vector_13" d="M37.3355 28.5178C39.6298 31.035 40.91 34.3328 40.8411 37.7474C40.8049 39.5469 38.0042 39.5539 38.0404 37.7474C38.0707 36.2759 37.8338 34.8405 37.2585 33.4681C36.9982 32.8473 36.6633 32.251 36.2922 31.6908C36.2059 31.5601 36.1172 31.4317 36.0261 31.3045C36.0145 31.2882 35.7543 30.9486 35.9001 31.133C35.7263 30.9148 35.5442 30.7036 35.3563 30.4982C34.8475 29.9392 34.8043 29.0698 35.3563 28.5178C35.8733 28.0008 36.8255 27.9565 37.3366 28.5178H37.3355Z" fill="#FDCB2E"/>
<path id="Vector_14" d="M38.0095 25.9827C40.1953 26.1297 42.4032 26.4693 44.4302 27.3305C47.0559 28.4461 48.9079 30.7194 49.9792 33.3124C50.2686 34.0114 49.6665 34.8517 49.0013 35.0349C48.1973 35.2554 47.5682 34.7583 47.2788 34.057C47.4469 34.4642 47.1668 33.8201 47.1213 33.7279C47.0244 33.5307 46.9206 33.3369 46.8109 33.1479C46.5378 32.6741 46.2355 32.226 45.8913 31.8304C45.6369 31.5375 45.3661 31.2597 45.0791 30.9983C44.8457 30.7859 44.659 30.6331 44.533 30.5467C44.2809 30.3763 44.0195 30.2223 43.7487 30.0846C43.478 29.9469 43.3636 29.8944 43.1548 29.815C42.115 29.4147 41.0204 29.1615 39.9211 28.9865C39.8102 28.969 39.7005 28.9526 39.5896 28.9363C39.1683 28.8721 39.8662 28.9631 39.4648 28.9199C39.264 28.8989 39.0645 28.8732 38.8638 28.8546C38.579 28.8266 38.2943 28.8044 38.0095 28.7857C37.2545 28.7344 36.6091 28.1789 36.6091 27.3853C36.6091 26.6665 37.251 25.9336 38.0095 25.985V25.9827Z" fill="#FDCB2E"/>
<path id="Vector_15" d="M34.9944 24.3051C35.4344 21.2558 36.5558 18.315 38.2304 15.7313C38.6412 15.0977 39.4721 14.8351 40.1466 15.2284C40.7779 15.5971 41.0615 16.5074 40.6496 17.1445C39.0917 19.5497 38.1056 22.2127 37.6959 25.0497C37.5874 25.7989 36.6375 26.2096 35.9735 26.0276C35.1695 25.807 34.8871 25.0567 34.9956 24.3051H34.9944Z" fill="#FDCB2E"/>
<path id="Vector_16" d="M37.7162 25.1228C40.9522 22.9183 44.7332 21.6965 48.6309 21.4515C49.3871 21.4036 50.0312 22.1295 50.0312 22.8518C50.0312 23.65 49.3882 24.2044 48.6309 24.2522C45.3202 24.4611 41.9745 25.6047 39.1294 27.5419C38.5039 27.9679 37.5761 27.6609 37.2132 27.0389C36.8083 26.3469 37.0883 25.5499 37.7162 25.1228Z" fill="#FDCB2E"/>
</g>
</g>
</g>
</g>
<path id="Vector_17" d="M25.3239 30.6518C16.3653 30.6518 9.10297 29.1627 9.10297 27.3259C9.10297 25.489 16.3653 24 25.3239 24C34.2825 24 41.5449 25.489 41.5449 27.3259C41.5449 29.1627 34.2825 30.6518 25.3239 30.6518Z" fill="#30287D"/>
<path id="Vector_18" d="M35.412 2.32031C38.8627 4.37769 38.7437 3.11153 42.9448 7.54604C43.4291 8.05717 47.237 7.0279 48.3129 9.1798C48.8964 10.3468 48.8964 11.7471 48.7062 12.8709C48.3421 15.0193 47.0934 17.0102 45.1095 17.9111C43.1257 18.812 40.8268 18.7898 38.6994 18.3207C38.3925 20.573 36.0316 22.2068 33.763 22.0737C31.4944 21.9407 29.4837 20.3209 28.4684 18.288C27.4532 16.254 27.3225 13.8745 27.6446 11.6246C27.9434 9.54039 28.6353 7.47484 29.9237 5.81073C31.2132 4.14662 33.1469 2.92012 35.2463 2.76841C37.3456 2.61671 39.5606 3.66467 40.5327 5.53183" fill="white"/>
<path id="Vector_19" d="M46.3497 33.5851C44.4032 35.5713 37.7492 28.1971 38.293 30.2125C38.6116 31.3923 39.237 37.2412 38.7434 39.0535C38.0771 41.4983 36.1492 42.9874 34.9974 40.1085C28.9186 25.7278 28.7739 35.3484 16.97 29.8694C9.1022 26.2179 25.3045 22.053 27.3303 22.3424C28.0644 22.9119 29.9829 24.2434 32.793 24.4663C36.008 24.7207 38.3537 23.3635 39.1052 22.8839C39.1052 22.8839 47.8773 30.1752 46.3509 33.5851H46.3497Z" fill="white"/>
<path id="Vector_20" d="M39.0936 22.9488C39.0936 22.9488 37.8099 21.7818 37.6827 21.874C37.2311 22.2731 36.5215 22.7702 35.5401 23.0853C34.2308 23.5054 32.8152 23.4413 31.5234 22.9686C30.6878 22.6641 29.6259 22.1693 28.8253 21.4306C28.6725 21.2905 27.1916 22.3641 27.1916 22.3641C27.1916 22.3641 29.5255 24.5814 32.9097 24.5814C35.8272 24.5814 38.1611 23.6478 39.0947 22.9476L39.0936 22.9488Z" fill="#70B0F8"/>
<g id="Group_7">
<g id="Group_8">
<path id="Vector_21" d="M25.9696 13.2307C26.0197 11.989 26.2741 10.752 26.5962 9.55589C27.6966 5.25208 30.5955 1.23885 35.4629 1.38472C37.4468 1.4419 39.4388 2.22959 40.8532 3.66613C41.9408 4.68724 42.5266 6.39919 44.1966 6.4377C45.0706 6.49955 46.052 6.40038 46.9716 6.66529C47.2669 6.74114 47.5411 6.86134 47.7967 7.01188C47.9647 6.84266 48.1701 6.70963 48.3965 6.63144C48.9776 6.43305 49.6627 6.61392 50.0945 7.05153C50.5263 7.48915 50.6978 8.15551 50.5659 8.7565C50.4586 9.24313 50.1598 9.67607 49.7619 9.97715C51.1459 16.2637 45.1021 21.6329 39.0163 20.0027C38.0431 22.2934 35.5831 23.7148 32.8675 23.3717C30.7495 23.171 28.8426 21.8313 27.6675 20.096C26.315 18.076 25.8785 15.609 25.9707 13.2319L25.9696 13.2307ZM30.7996 19.6327C31.2723 20.054 31.8383 20.3679 32.4299 20.5885C32.9551 20.7343 33.5234 20.8114 34.0602 20.7705C36.0896 20.6655 37.3896 18.9535 37.2134 16.979C37.0372 15.0068 35.9274 13.4512 34.8397 11.6926C34.443 11.0461 35.3019 10.3646 35.841 10.9072C36.379 11.465 36.91 12.0474 37.4141 12.6834C38.4095 13.9764 39.2206 15.4071 39.4131 17.0712C41.6969 18.2627 44.6622 17.5765 46.3648 15.6405C47.4816 14.4268 48.0569 12.7441 47.9157 11.0986C47.827 10.0028 47.4128 8.66548 46.2364 8.49977C45.5538 8.37957 44.808 8.45541 44.0425 8.39473C43.6025 8.36088 43.1124 8.28504 42.6223 8.08782C42.1357 7.88944 41.7144 7.59304 41.3678 7.28029C40.5404 6.54042 40.0293 5.64067 39.2451 4.92764C37.6837 3.54478 35.2435 3.13868 33.3133 3.9509C30.8673 4.98484 29.6537 7.67237 29.055 10.1744C28.2428 13.2995 28.307 17.3501 30.7985 19.6304L30.7996 19.6327Z" fill="#30287D"/>
<path id="Vector_22" d="M38.4633 6.5663C38.9651 6.59081 39.7084 6.83004 39.8088 7.38669C39.8496 7.71228 39.6186 8.00985 39.2918 8.05069C38.5053 8.11138 37.9813 8.36811 37.6301 9.09747C37.5402 9.28185 37.441 9.49308 37.231 9.57243C36.3184 9.88518 36.169 8.60501 36.4059 7.99468C36.6568 7.15329 37.5869 6.50679 38.4621 6.5663H38.4633Z" fill="#30287D"/>
</g>
<path id="Vector_23" d="M23.1063 31.702C23.4132 31.3765 26.9574 30.0683 28.1243 29.7182C29.2913 29.4848 30.3602 29.3027 31.4024 30.4394C32.7257 31.9238 33.5379 33.7256 34.2346 35.5402C34.8146 37.0036 34.9686 38.5685 35.7062 39.907C35.8334 40.1346 36.0399 40.403 36.2091 40.4637C36.2815 40.48 36.299 40.4882 36.3492 40.4707C36.767 40.2326 37.0295 39.5826 37.1602 39.0948C37.5056 37.754 37.4998 36.3489 37.2874 34.9719C37.1136 33.6894 36.6573 32.5959 36.1893 31.3484C35.9466 30.6903 35.705 29.9819 35.5451 29.2035C35.4984 28.9713 35.5101 28.7169 35.5965 28.4777C35.8474 27.7775 36.6188 27.4134 37.3189 27.6655C37.9538 27.893 38.5326 28.1976 39.0612 28.5313C40.5234 29.4521 41.8013 30.7626 43.0068 31.8607C43.5377 32.3264 44.0909 32.8597 44.6837 33.1957C44.9731 33.3638 45.4609 33.4805 45.7468 33.344C46.1039 32.7546 45.2952 31.4429 44.9031 30.8303C43.1631 28.2571 41.0393 25.838 38.4813 24.0945C38.1242 23.8518 37.4204 22.7385 37.578 21.666C37.6853 20.9308 38.8115 20.2773 38.9784 20.0323C39.3891 19.4289 38.4357 20.9227 39.0379 21.3358C41.9367 23.3103 45.1808 26.5032 47.1297 29.3669C48.1228 30.8595 49.1171 32.9449 48.0563 34.7058C46.8344 36.6897 44.0932 36.2988 42.5412 34.9941C41.436 34.162 40.4254 33.1071 39.3635 32.1653C39.5712 32.7768 39.7532 33.4023 39.8583 34.0196C40.3962 36.769 40.3682 41.7182 37.2909 42.9879C36.4192 43.3286 35.3526 43.1617 34.6092 42.6366C33.7585 42.0286 33.3641 41.2969 32.972 40.4217C32.5472 39.4449 32.2951 38.3036 32.0197 37.3595C31.6509 36.1599 31.1491 34.9742 30.5633 33.8878C30.219 33.2821 29.855 32.694 29.3929 32.2132C29.3905 32.212 29.38 32.2038 29.3625 32.191C29.0159 31.9471 29.0135 31.8654 28.5923 31.8187C27.542 31.702 27.1919 31.8187 26.2583 31.8187C25.1824 31.8187 23.1075 31.702 23.1075 31.702H23.1063Z" fill="#30287D"/>
<path id="Vector_24" d="M16.1047 27.7329C15.4956 28.181 15.1746 28.9209 14.8211 28.3164C14.4056 27.6057 14.9039 26.6231 15.5142 26.1738C18.5845 23.9169 23.3598 21.6891 27.282 20.7135C27.6204 20.6295 27.45 19.6294 27.7733 19.564C28.5143 19.4158 28.9636 19.8488 29.1737 20.6143C29.3627 21.304 27.226 22.1232 27.6566 22.7149C27.6566 22.7149 19.2707 25.4048 16.1035 27.7329H16.1047Z" fill="#30287D"/>
</g>
</g>
</g>
</svg>
