<svg width="52" height="47" viewBox="0 0 52 47" fill="none" xmlns="http://www.w3.org/2000/svg">
<g id="Group">
<path id="Vector" d="M1.66559 34.0904C-1.72935 31.6838 0.703407 27.5645 3.30634 25.6129C4.36453 24.6856 5.52201 23.7867 6.15801 22.4939C5.066 20.5914 0.859428 15.1117 3.38272 13.3837C4.89801 12.4968 6.03583 13.28 6.84202 15.1106C7.45184 16.1982 8.06383 17.287 8.72929 18.3419C11.4969 15.3135 17.1064 18.0997 15.8999 22.1808C15.6643 22.9565 21.3098 22.2572 22.2087 22.159C23.2745 22.0347 24.2465 21.8383 25.2927 21.6441C21.1014 17.5335 26.2942 12.9746 27.6971 8.83891C26.172 7.26363 29.1044 2.70141 30.5215 1.61704C33.995 -1.41571 39.1866 0.258829 42.2957 3.01776C43.5918 2.52358 45.2598 2.03813 46.5787 2.75814C48.106 3.74542 47.0445 5.54871 45.7627 6.17053C46.4674 6.12144 47.146 6.13452 47.8202 6.29379C51.1213 4.7316 53.4853 8.97311 50.9031 11.3317C50.9326 16.5561 47.1525 21.5645 41.8649 22.3314C43.3922 23.3132 43.8733 31.6664 43.5874 33.5853C51.0515 31.6642 52.3955 40.7035 45.4333 42.5996C45.2238 44.9843 42.1081 46.3534 40.4194 44.5163C38.8397 48.04 34.0223 46.6512 34.0692 42.9803H19.6363C19.1366 45.1905 16.2348 46.2127 14.6726 44.5196C13.0941 48.0334 8.28638 46.6545 8.32456 42.9923C5.97581 43.0305 3.47979 42.5308 1.69942 40.8988C-0.320965 39.1675 -0.675491 35.693 1.66671 34.0893L1.66559 34.0904ZM44.9674 3.49451C44.9511 3.48032 44.9249 3.51523 44.8954 3.57305C44.9412 3.53596 44.9762 3.50323 44.9674 3.49451Z" fill="white"/>
<g id="Group_2">
<g id="Group_3">
<path id="Vector_2" d="M42.4197 44.0713C41.431 44.0713 40.6295 43.1433 40.6295 41.9985C40.6295 40.8538 41.431 39.9258 42.4197 39.9258C43.4084 39.9258 44.21 40.8538 44.21 41.9985C44.21 43.1433 43.4084 44.0713 42.4197 44.0713Z" fill="#70B0F8"/>
<path id="Vector_3" d="M37.4019 45.2707C36.2571 45.2707 35.3291 44.1962 35.3291 42.8707C35.3291 41.5452 36.2571 40.4707 37.4019 40.4707C38.5466 40.4707 39.4746 41.5452 39.4746 42.8707C39.4746 44.1962 38.5466 45.2707 37.4019 45.2707Z" fill="#70B0F8"/>
<path id="Vector_4" d="M42.5647 42.5259C40.8923 42.8171 39.2189 43.1073 37.5465 43.3986C36.8603 43.5175 36.5646 42.4669 37.2563 42.3469C38.9287 42.0557 40.6021 41.7655 42.2745 41.4742C42.9607 41.3553 43.2564 42.4059 42.5647 42.5259Z" fill="#70B0F8"/>
</g>
<g id="Group_4">
<path id="Vector_5" d="M16.6746 44.0713C15.6859 44.0713 14.8844 43.1433 14.8844 41.9985C14.8844 40.8538 15.6859 39.9258 16.6746 39.9258C17.6633 39.9258 18.4648 40.8538 18.4648 41.9985C18.4648 43.1433 17.6633 44.0713 16.6746 44.0713Z" fill="#70B0F8"/>
<path id="Vector_6" d="M11.6567 45.2707C10.512 45.2707 9.584 44.1962 9.584 42.8707C9.584 41.5452 10.512 40.4707 11.6567 40.4707C12.8015 40.4707 13.7295 41.5452 13.7295 42.8707C13.7295 44.1962 12.8015 45.2707 11.6567 45.2707Z" fill="#70B0F8"/>
<path id="Vector_7" d="M16.8196 42.5259C15.1472 42.8171 13.4738 43.1073 11.8014 43.3986C11.1152 43.5175 10.8195 42.4669 11.5112 42.3469C13.1836 42.0557 14.857 41.7655 16.5294 41.4742C17.2156 41.3553 17.5112 42.4059 16.8196 42.5259Z" fill="#70B0F8"/>
</g>
<g id="Group_5">
<path id="Vector_8" d="M4.97112 40.6932L5.49911 40.8558C6.08602 41.0369 6.71111 41.1296 7.34275 41.1296H42.9984C43.6802 41.1296 44.3544 41.0216 44.9805 40.8121L45.2358 40.727C47.0369 40.1227 48.2031 38.7536 48.2031 37.2405C48.2031 35.7405 46.2165 34.7259 44.422 35.3106C44.0871 35.4197 43.726 35.4764 43.3616 35.4764H7.02314C6.68605 35.4764 6.35113 35.4285 6.03695 35.3336L5.55584 35.1895C3.77218 34.655 1.8489 35.6684 1.8489 37.1423C1.8489 38.7067 3.08601 40.1139 4.97112 40.6943V40.6932Z" fill="#8ED8C1"/>
<path id="Vector_9" d="M5.11639 40.1665C6.07858 40.4633 7.00585 40.5833 7.99858 40.5833H41.6916C42.128 40.5833 42.5632 40.5887 42.9996 40.5833C44.4451 40.5669 46.1251 40.0586 47.0556 38.8815C47.8422 37.8866 47.9273 36.524 46.6476 35.9316C45.512 35.4058 44.4952 35.9992 43.3432 36.02C43.1839 36.0232 43.0247 36.02 42.8665 36.02C41.9741 36.02 41.0818 36.02 40.1894 36.02H30.1508C26.122 36.02 22.0921 36.02 18.0634 36.02C15.0383 36.02 12.0121 36.02 8.98696 36.02C8.36077 36.02 7.7335 36.0254 7.10731 36.02C6.45276 36.0145 5.87785 35.8225 5.25275 35.6709C4.11601 35.3949 2.28323 35.8934 2.40214 37.3476C2.51996 38.7942 3.8411 39.7542 5.11639 40.1676C5.78185 40.3836 5.4971 41.4364 4.82618 41.2193C3.41126 40.7611 2.10109 39.848 1.54581 38.4189C1.05381 37.1523 1.35926 35.8476 2.5189 35.0807C3.66437 34.3236 4.93418 34.4632 6.1811 34.8058C6.55419 34.9083 6.91749 34.929 7.29604 34.929C9.60988 34.929 11.9248 34.929 14.2386 34.929C18.2706 34.929 22.3027 34.929 26.3347 34.929C30.1988 34.929 34.0617 34.929 37.9258 34.929C39.7334 34.929 41.5443 34.9629 43.352 34.929C43.9138 34.9181 44.4167 34.7054 44.9676 34.6334C45.6811 34.5396 46.4098 34.6389 47.0687 34.9323C48.3178 35.4887 48.9451 36.6571 48.6626 37.9934C48.1324 40.5004 45.2502 41.6611 42.945 41.6753C40.9323 41.6873 38.9196 41.6753 36.9079 41.6753H13.2645C11.3041 41.6753 9.34258 41.6873 7.38111 41.6753C6.49419 41.6698 5.66616 41.4789 4.82507 41.2193C4.15633 41.0131 4.44108 39.9604 5.11527 40.1676L5.11639 40.1665Z" fill="#8ED8C1"/>
</g>
<path id="Vector_10" d="M4.14616 14.4575C4.53998 14.2262 4.86177 14.2688 5.12249 14.7281C6.19923 16.6219 7.27162 18.639 8.55127 20.4412C10 18.819 10.7549 17.8645 13.0382 18.6641C14.2611 19.0885 14.8241 20.2645 14.715 21.5114C14.307 23.774 11.3975 24.6107 9.44148 24.1263C8.4291 26.0409 6.95416 27.2376 5.24469 28.6427C4.66541 29.1118 3.3563 30.0631 3.79049 31.082C7.46907 30.9838 9.99565 27.6707 12.4786 25.49C13.2586 24.6401 14.692 25.3722 14.5862 26.4576C14.5426 27.6358 14.2098 28.7824 14.1815 29.9147C14.1608 34.0199 16.119 38.2166 17.9561 31.706C18.9477 29.4326 16.8608 23.1172 20.6954 23.5198C22.0863 23.6823 25.8183 22.8532 27.5452 22.5423C31.4278 22.5347 30.3882 27.3042 29.0213 29.4467C28.3624 30.6729 27.3063 31.418 26.4151 32.4162C26.2634 32.5864 26.2733 33.8191 27.9096 33.3828C29.1871 33.0424 29.7271 32.3791 30.746 31.5282C31.6919 30.7373 32.5755 29.3573 33.2136 28.31C33.7024 27.6238 34.0046 26.5514 34.8359 26.1576C38.5155 25.4616 35.8711 34.6951 38.8842 35.7446C40.7039 33.9719 39.5476 27.0413 39.0959 24.6314C38.6683 23.1238 41.0694 22.4758 41.4327 23.9802C42.0948 27.278 43.8272 36.4723 39.7461 37.9439C35.7773 39.2606 34.6973 33.9719 34.5991 31.0515C33.2268 34.0701 24.23 38.3541 23.7183 33.026C23.8907 30.3664 27.1001 29.3071 27.7132 26.4838C27.8769 25.9394 27.8507 25.3962 27.8027 24.8692C25.6056 25.4016 23.667 26.5983 21.2975 26.258C21.1295 29.2165 19.7757 37.3406 16.1713 37.9875C12.376 37.6603 11.7411 32.6279 11.6429 29.6267C9.17962 31.5238 5.88507 34.5926 2.61232 33.1482C1.47449 32.558 1.04578 31.142 1.40688 30.0751C2.58615 26.8034 6.53087 25.7649 7.63161 22.3329C7.00215 21.4427 2.75632 14.9604 4.14616 14.4586V14.4575ZM10.6917 22.1518C11.4171 22.1005 12.2539 21.8147 12.6117 21.1634C12.5975 20.9539 12.4502 20.6528 12.2026 20.6179C11.212 20.5503 10.7375 21.2648 10.2957 22.0601C10.4506 22.0896 10.516 22.1594 10.6917 22.1518Z" fill="#30287D"/>
<g id="Group_6">
<path id="Vector_11" d="M27.1756 12.9613C27.5138 12.3002 27.8455 11.7984 28.2829 10.7675C29.8517 7.06924 31.6942 2.90194 36.5117 2.89649C38.4753 2.89431 40.0997 3.99503 41.5016 5.28122C42.4332 6.37978 43.0278 7.56888 44.5878 7.59942C45.4769 7.50342 46.3551 7.37252 47.2485 7.47288C47.5333 7.50452 47.7711 7.59943 48.0274 7.71725C48.2183 7.56343 48.4354 7.36052 48.6798 7.31252C49.3092 7.18707 49.9398 7.31797 50.35 7.82743C50.7602 8.33689 50.8017 8.91837 50.5922 9.53364C50.4231 10.0322 50.0085 10.4336 49.5951 10.7533C49.8067 19.5504 41.111 23.4559 35.7655 19.7468C31.8382 22.5832 28.38 22.2898 26.6029 21.0417C25.1509 20.0228 24.6032 18.1181 25.2229 16.4566C25.273 16.3213 25.3287 16.1872 25.3865 16.053C25.9156 14.8431 26.5276 14.2279 27.1756 12.9635V12.9613ZM27.4614 16.701C27.3338 17.0381 26.7109 18.6548 27.8018 19.2003C29.9586 20.2781 33.5226 19.1304 35.1208 17.3904C36.719 15.6515 36.4703 14.2366 35.8059 12.3439C35.5615 11.6489 36.4299 11.2027 36.8903 11.6827C37.3506 12.1638 37.823 13.1075 38.0576 13.8537C38.5288 15.3537 38.1317 16.5101 37.4401 17.9261C39.791 19.5079 42.9132 18.8152 45.022 16.9792C46.3703 15.8042 47.3762 13.8668 47.5529 12.0504C47.6707 10.8405 47.5529 9.58165 46.3114 9.34273C45.587 9.20419 44.9838 9.48999 44.2681 9.46053C43.8558 9.44308 43.427 9.42235 43.0158 9.26635C42.6045 9.10926 42.2249 8.83655 41.8943 8.55182C41.1099 7.87545 40.6659 7.00707 39.8837 6.30888C38.3455 4.93433 36.3677 4.38996 34.5033 5.35215C32.1382 6.57179 31.4008 9.12562 30.408 11.3642C29.5637 13.1871 28.1444 14.902 27.4625 16.6999L27.4614 16.701Z" fill="#30287D"/>
<path id="Vector_12" d="M39.6468 8.95392C40.1748 9.00629 40.7781 9.28773 40.9418 9.80809C41.0367 10.1103 40.7978 10.3666 40.5054 10.3874C39.805 10.4397 39.3752 10.5957 39.0752 11.2579C38.9988 11.4259 38.9486 11.643 38.7479 11.667C37.8904 11.7685 37.7181 10.8641 37.8228 10.1648C38.0835 9.27464 38.725 8.86229 39.6468 8.95392Z" fill="#30287D"/>
</g>
<g id="Group_7">
<path id="Vector_13" d="M42.4503 5.12952C44.1521 7.49572 27.7523 10.2383 28.5683 7.43899C29.656 3.70805 31.5105 1.96913 33.6924 1.41712C36.2331 0.775664 40.5652 2.50804 42.4503 5.12843V5.12952Z" fill="#FF862C"/>
<path id="Vector_14" d="M40.0778 5.23127C40.0778 5.23127 40.8349 5.05238 43.0407 4.10328C45.2454 3.15527 50.4426 3.78801 38.2538 7.73495L40.0778 5.23018V5.23127Z" fill="#FF862C"/>
</g>
</g>
</g>
</svg>
