<svg width="26" height="19" viewBox="0 0 26 19" fill="none" xmlns="http://www.w3.org/2000/svg">
<path id="Vector" d="M25.4633 2.84852C25.1637 1.73466 24.2855 0.856618 23.1718 0.556691C21.1372 0 12.9987 0 12.9987 0C12.9987 0 4.86054 0 2.82596 0.535584C1.73368 0.835194 0.834059 1.73482 0.534449 2.84852C-0.000976562 4.88294 -0.000976562 9.10208 -0.000976562 9.10208C-0.000976562 9.10208 -0.000976562 13.3425 0.534449 15.3556C0.834377 16.4693 1.71226 17.3474 2.82612 17.6473C4.88197 18.2042 12.999 18.2042 12.999 18.2042C12.999 18.2042 21.1372 18.2042 23.1718 17.6686C24.2857 17.3688 25.1637 16.4908 25.4636 15.3771C25.9989 13.3425 25.9989 9.1235 25.9989 9.1235C25.9989 9.1235 26.0203 4.88294 25.4633 2.84852ZM10.4076 12.9999V5.20429L17.1752 9.10208L10.4076 12.9999Z" fill="#FFF1DE"/>
</svg>
